<?xml version="1.0" encoding="UTF-8" standalone="no"?>
<!-- Created with sK1/UniConvertor (http://sk1project.org/) -->

<svg
   xmlns:dc="http://purl.org/dc/elements/1.1/"
   xmlns:cc="http://creativecommons.org/ns#"
   xmlns:rdf="http://www.w3.org/1999/02/22-rdf-syntax-ns#"
   xmlns:svg="http://www.w3.org/2000/svg"
   xmlns="http://www.w3.org/2000/svg"
   xmlns:sodipodi="http://sodipodi.sourceforge.net/DTD/sodipodi-0.dtd"
   xmlns:inkscape="http://www.inkscape.org/namespaces/inkscape"
   width="534.00031pt"
   height="444.99902pt"
   viewBox="0 0 534.0003 444.99902"
   version="1.1"
   id="svg30"
   sodipodi:docname="Mestermerke-korrekt-logo-mars-_10.svg"
   style="fill-rule:evenodd"
   inkscape:version="0.92.3 (2405546, 2018-03-11)">
  <metadata
     id="metadata36">
    <rdf:RDF>
      <cc:Work
         rdf:about="">
        <dc:format>image/svg+xml</dc:format>
        <dc:type
           rdf:resource="http://purl.org/dc/dcmitype/StillImage" />
        <dc:title></dc:title>
      </cc:Work>
    </rdf:RDF>
  </metadata>
  <defs
     id="defs34" />
  <sodipodi:namedview
     pagecolor="#ffffff"
     bordercolor="#666666"
     borderopacity="1"
     objecttolerance="10"
     gridtolerance="10"
     guidetolerance="10"
     inkscape:pageopacity="0"
     inkscape:pageshadow="2"
     inkscape:window-width="1920"
     inkscape:window-height="1017"
     id="namedview32"
     showgrid="false"
     inkscape:zoom="0.89802561"
     inkscape:cx="345.75551"
     inkscape:cy="395.47982"
     inkscape:window-x="-8"
     inkscape:window-y="-8"
     inkscape:window-maximized="1"
     inkscape:current-layer="g28"
     units="px" />
  <g
     id="g28"
     transform="translate(-30.6377,-198.445)">
    <path
       inkscape:connector-curvature="0"
       d="m 398.398,535.193 3.176,5.118 -20.812,12.913 8.172,13.172 16.155,-10.024 3.176,5.118 -16.156,10.024 8.172,13.171 20.813,-12.913 3.176,5.119 -31.948,19.821 -25.871,-41.699 z m -38.61,18.259 40.171,-24.923 8.277,13.342 -20.812,12.913 3.07,4.949 16.154,-10.024 8.279,13.342 -16.155,10.023 3.07,4.949 20.812,-12.914 8.278,13.341 -40.17,24.924 z m -120.541,5.596 -3.013,5.217 -21.211,-12.247 -7.75,13.424 16.464,9.505 -3.011,5.217 -16.465,-9.506 -7.75,13.424 21.211,12.247 -3.012,5.217 -32.559,-18.799 24.536,-42.498 z m -34.331,-25.408 40.94,23.636 -7.85,13.598 -21.212,-12.246 -2.911,5.042 16.464,9.507 -7.85,13.597 -16.465,-9.505 -2.912,5.042 21.212,12.247 -7.85,13.597 -40.941,-23.636 z m 134.873,46.738 7.079,38.419 -19.719,3.633 -7.078,-38.419 -16.754,3.087 -3.632,-19.719 53.224,-9.806 3.633,19.719 z m 1.444,34.537 -10.203,1.88 -7.078,-38.419 -16.754,3.087 -1.879,-10.202 43.709,-8.053 1.879,10.202 -16.753,3.086 z m 104.951,-92.365 -9.228,11.018 16.982,14.222 -4.263,5.089 -37.622,-31.508 21.804,-25.896 c 5.55,-6.593 13.867,-5.435 19.697,-0.223 5.83,5.213 2.989,14.928 -3.4,22.556 l 26.485,2.875 -4.691,5.601 z m 27.741,8.909 -25.766,-3.734 -4.387,5.24 16.981,14.222 -10.476,12.508 -45.039,-37.721 23.647,-28.236 c 17.137,-20.462 44.227,4.194 30.697,20.349 l 26.627,2.705 z m -34.153,-25.301 c 0.988,-1.026 2.928,-3.08 4.467,-1.791 1.54,1.289 -0.143,3.561 -0.979,4.715 l -11.409,13.623 -3.491,-2.922 z m -18.228,14.228 14.627,-17.465 c 8.262,-9.865 19.166,-0.724 10.909,9.136 l -14.627,17.465 z m -271.696,-22.111 -28.722,22.392 -6.379,-8.181 38.7,-30.172 7.61,9.76 -13.656,32.477 34.826,-5.324 7.609,9.759 -38.7,30.173 -6.378,-8.18 28.722,-22.394 -36.962,4.45 z m -20.722,40.523 9.974,-26.009 -18.815,14.669 -12.328,-15.812 46.331,-36.123 12.328,15.813 -11.406,27.126 29.088,-4.447 12.329,15.812 -46.332,36.123 -12.328,-15.813 18.814,-14.669 z m 116.203,56.817 c 3.081,2.909 9.306,7.501 15.075,9.13 1.903,0.538 4.313,0.987 6.226,0.426 2.897,-0.851 4.541,-2.958 2.848,-5.37 -0.762,-1.087 -2.414,-2.15 -5.049,-2.934 -11.299,-3.367 -21.495,-9.783 -18.398,-23.579 1.209,-5.385 4.142,-8.177 8.745,-10.851 9.697,-5.635 28.672,-1.656 39.509,7.482 l -8.121,12.266 c -4.559,-3.167 -8.362,-5.412 -13.824,-6.617 -1.882,-0.415 -3.284,-0.645 -4.338,-0.31 -2.495,0.795 -2.719,3.471 0.933,5.091 1.255,0.556 2.958,1.359 4.957,2.129 10.464,4.027 14.412,7.3 16.978,14.681 0.745,2.145 2.357,10.218 -4.131,17.608 -5.033,5.731 -11.822,7.744 -22.423,7.31 -13.133,-0.536 -22.487,-7.107 -30.378,-16.138 z m 28.192,1.493 c -1.86,-2.587 -4.632,-3.891 -7.613,-4.848 -4.395,-1.409 -9.305,-3.149 -12.562,-6.609 -3.743,-3.971 -4.207,-10.819 -0.873,-15.238 5.547,-7.354 16.628,-6.357 24.401,-4.13 3.829,1.098 7.467,2.656 10.829,4.813 l -2.914,4.401 c -1.601,-0.98 -3.228,-1.849 -4.956,-2.585 -4.148,-1.766 -11.006,-4.232 -15.318,-1.375 -2.203,1.459 -3.486,3.714 -3.262,6.389 0.191,2.293 1.805,4.607 3.742,5.78 2.252,1.364 4.676,2.305 7.116,3.27 3.851,1.522 7.768,2.959 10.762,5.885 2.038,1.993 3.399,4.7 3.78,7.54 0.363,2.703 -0.101,5.56 -1.373,7.984 -1.949,3.706 -5.115,6.515 -9.138,7.738 -7.478,2.275 -16.966,1.48 -24.075,-1.838 -4.263,-1.99 -7.886,-4.761 -11.231,-8.066 l 4.608,-4.178 c 4.948,3.769 10.32,6.936 16.51,8.002 3.207,0.554 6.553,0.144 9.288,-1.696 1.716,-1.159 3.1,-2.795 3.6,-4.835 0.55,-2.239 0.017,-4.542 -1.321,-6.404 z m -166.481,-3.966 26.893,-20.057 c -18.528,-18.676 -33.914,-40.473 -45.2807,-64.517 0.9932,24.764 5.3814,61.856 18.3877,84.574 z m 382.472,0 -26.894,-20.057 c 18.528,-18.676 33.914,-40.473 45.28,-64.517 -0.992,24.764 -5.38,61.856 -18.386,84.574 z m -22.139,-126.132 1.346,-4.173 83.914,32.614 c -10.619,31.472 -26.933,60.363 -47.705,85.436 12.517,-32.44 13.608,-79.592 12.599,-93.685 z m -11.813,112.892 37.517,28.029 c 32.807,-32.821 57.595,-73.745 71.047,-119.489 l -62.468,-23.163 c 4.805,-17.62 7.381,-36.143 7.381,-55.251 0,-116.082 -94.68,-210.761 -210.762,-210.761 -116.081,0 -210.7608,94.679 -210.7608,210.761 0,19.108 2.5761,37.631 7.3808,55.251 l -62.4682,23.163 c 13.4526,45.744 38.2402,86.668 71.0472,119.489 l 37.517,-28.029 c 41.364,38.339 96.666,61.831 157.284,61.831 60.62,0 115.92,-23.492 157.285,-61.831 z M 298.275,208.942 c 110.753,0 201.085,90.333 201.085,201.086 0,17.87 -2.364,35.205 -6.777,51.719 l -21.239,-8.272 c 0.487,-1.942 0.944,-3.883 1.363,-5.829 l -29.61,-19.069 c 1.015,-7.824 1.403,-15.788 1.114,-23.82 l 31.201,-16.278 c -0.842,-6.937 -2.103,-13.899 -3.804,-20.854 -1.701,-6.952 -3.796,-13.712 -6.255,-20.255 l -35.246,-0.035 c -5.283,-11.171 -12.024,-21.76 -20.195,-31.452 l 14.524,-32.054 c -4.939,-4.942 -10.227,-9.645 -15.853,-14.071 -5.626,-4.424 -11.444,-8.455 -17.414,-12.089 l -27.768,21.707 C 352.272,273.799 340.34,269.6 327.833,267.012 l -8.395,-34.175 c -7.009,-0.844 -14.095,-1.26 -21.163,-1.26 -7.067,0 -14.153,0.416 -21.161,1.26 l -8.396,34.175 c -12.507,2.588 -24.439,6.787 -35.568,12.364 l -27.768,-21.707 c -5.969,3.634 -11.788,7.665 -17.414,12.089 -5.626,4.426 -10.913,9.129 -15.854,14.071 l 14.525,32.054 c -8.171,9.692 -14.913,20.281 -20.195,31.452 l -35.246,0.035 c -2.459,6.543 -4.554,13.303 -6.255,20.255 -1.7,6.955 -2.963,13.917 -3.804,20.854 l 31.202,16.278 c -0.29,8.032 0.098,15.996 1.114,23.82 l -29.611,19.069 c 0.419,1.946 0.876,3.887 1.363,5.829 l -21.239,8.272 c -4.4128,-16.514 -6.7776,-33.849 -6.7776,-51.719 0,-110.753 90.3326,-201.086 201.0846,-201.086 z m 0,32.311 c 4.465,-0.032 8.928,0.168 13.391,0.529 2.744,11.202 5.487,22.404 8.23,33.605 l -0.001,0.002 c 0.022,0.004 0.046,0.008 0.069,0.011 l 0.043,0.176 h 1.013 c 12.376,2.119 33.833,7.888 43.284,15.333 l 27.442,-21.408 c 3.69,2.457 7.313,5.076 10.857,7.862 3.543,2.788 6.943,5.689 10.198,8.693 l -14.305,31.503 -0.002,0.003 c 10.762,11.659 19.097,24.877 25.334,39.43 l 34.684,0.049 c 1.389,4.21 2.626,8.505 3.699,12.884 1.069,4.379 1.958,8.76 2.667,13.133 l -30.688,15.978 -0.002,10e-4 c 0.952,11.731 0.351,23.342 -1.652,34.596 l -0.002,0.007 29.187,18.442 -3.375,11.412 -30.704,-11.939 c -15.437,54.617 -69.012,94.303 -129.367,94.303 -60.354,0 -113.929,-39.686 -129.366,-94.303 l -30.703,11.939 -3.375,-11.412 29.186,-18.442 -0.002,-0.007 c -2.003,-11.254 -2.603,-22.865 -1.651,-34.596 l -0.003,-10e-4 -30.688,-15.978 c 0.709,-4.373 1.597,-8.754 2.667,-13.133 1.073,-4.379 2.31,-8.674 3.699,-12.884 l 34.684,-0.049 c 6.237,-14.553 14.572,-27.771 25.334,-39.43 l -0.002,-0.003 -14.305,-31.503 c 3.255,-3.004 6.656,-5.905 10.198,-8.693 3.545,-2.786 7.167,-5.405 10.857,-7.862 l 27.442,21.408 c 9.452,-7.445 30.908,-13.214 43.285,-15.333 h 1.012 l 0.044,-0.176 c 0.022,-0.003 0.046,-0.007 0.069,-0.011 l -0.002,-0.002 c 2.743,-11.201 5.487,-22.403 8.23,-33.605 4.463,-0.361 8.925,-0.561 13.39,-0.529 z m 0,314.279 c 61.037,0 113.497,-37.918 135.041,-91.4 l 71.295,27.766 c -32.702,81.973 -112.935,140.161 -206.336,140.161 -93.399,0 -173.633,-58.188 -206.3351,-140.161 l 71.2951,-27.766 c 21.544,53.482 74.004,91.4 135.04,91.4 z M 129.178,467.01 127.832,462.837 43.9185,495.451 C 54.5376,526.923 70.8506,555.814 91.623,580.887 79.106,548.447 78.0146,501.295 79.0239,487.202 Z M 298.275,283.348 c 69.773,0 126.68,56.908 126.68,126.68 0,69.772 -56.907,126.68 -126.68,126.68 -69.772,0 -126.679,-56.908 -126.679,-126.68 0,-69.772 56.907,-126.68 126.679,-126.68 z m 0,9.677 c 64.443,0 117.002,52.561 117.002,117.003 0,64.442 -52.559,117.002 -117.002,117.002 -64.442,0 -117.002,-52.56 -117.002,-117.002 0,-64.442 52.56,-117.003 117.002,-117.003 z m 3.196,28.236 h -9.832 v 3.195 h -17.205 v 14.01 h 20.401 v 85.045 h 7.373 v -85.045 h 19.909 v -3.441 z m -16.606,-6.774 v 3.196 H 267.66 v 27.557 h 20.4 v 85.044 h 20.922 V 345.24 h 19.91 V 331.4 l -25.37,-16.913 z m 80.049,64.812 h -9.831 v 3.195 h -17.206 v 14.01 h 20.401 v 85.045 h 7.373 v -85.045 h 19.909 v -3.44 z m -16.605,-6.774 v 3.195 h -17.206 v 27.558 h 20.401 v 85.044 h 20.922 v -85.044 h 19.909 v -13.84 l -25.37,-16.913 z m -110.282,6.774 h -9.831 v 3.195 H 210.99 v 14.01 h 20.401 v 85.045 h 7.374 v -85.045 h 19.909 v -3.44 z m -16.605,-6.774 v 3.195 h -17.206 v 27.558 h 20.401 v 85.044 h 20.922 v -85.044 h 19.909 v -13.84 l -25.37,-16.913 z"
       style="fill:#2c2c2b;stroke:#2c2c2b;stroke-width:0.21600001"
       id="path24"
       inkscape:label="path24" />
  </g>
</svg>
