<?xml version="1.0" encoding="UTF-8" standalone="no"?>
<!-- Created with Inkscape (http://www.inkscape.org/) -->

<svg
   xmlns:dc="http://purl.org/dc/elements/1.1/"
   xmlns:cc="http://creativecommons.org/ns#"
   xmlns:rdf="http://www.w3.org/1999/02/22-rdf-syntax-ns#"
   xmlns:svg="http://www.w3.org/2000/svg"
   xmlns="http://www.w3.org/2000/svg"
   xmlns:sodipodi="http://sodipodi.sourceforge.net/DTD/sodipodi-0.dtd"
   xmlns:inkscape="http://www.inkscape.org/namespaces/inkscape"
   version="1.1"
   id="svg2"
   width="819.20001"
   height="680"
   viewBox="0 0 819.20001 680"
   sodipodi:docname="byggmester.svg"
   inkscape:version="0.92.3 (2405546, 2018-03-11)">
  <metadata
     id="metadata8">
    <rdf:RDF>
      <cc:Work
         rdf:about="">
        <dc:format>image/svg+xml</dc:format>
        <dc:type
           rdf:resource="http://purl.org/dc/dcmitype/StillImage" />
        <dc:title></dc:title>
      </cc:Work>
    </rdf:RDF>
  </metadata>
  <defs
     id="defs6" />
  <sodipodi:namedview
     pagecolor="#ffffff"
     bordercolor="#666666"
     borderopacity="1"
     objecttolerance="10"
     gridtolerance="10"
     guidetolerance="10"
     inkscape:pageopacity="0"
     inkscape:pageshadow="2"
     inkscape:window-width="1920"
     inkscape:window-height="1017"
     id="namedview4"
     showgrid="false"
     inkscape:zoom="0.34667968"
     inkscape:cx="409.60001"
     inkscape:cy="340"
     inkscape:window-x="-8"
     inkscape:window-y="-8"
     inkscape:window-maximized="1"
     inkscape:current-layer="svg2" />
  <path
     style="fill:#000000;stroke-width:0.80000001"
     d="M 395.6,679.4745 C 311.84054,675.58381 237.89709,645.9633 174.61815,590.95285 l -8.18184,-7.11275 -1.93716,1.47995 c -1.78573,1.36426 -14.81468,12.06574 -42.08612,34.56791 l -10.78698,8.90054 -5.88063,-5.79425 C 98.770585,616.12187 84.784993,600.56868 77.515388,591.6 44.724872,551.1456 17.951471,501.64291 2.9416704,453.71691 l -2.81959915,-9.00293 2.13896435,-0.8238 c 2.8307167,-1.09023 17.4037724,-6.64095 43.3389654,-16.50732 40.463544,-15.39332 50.601224,-19.31742 51.0406,-19.7568 0.242936,-0.24292 -0.533184,-4.58115 -1.724704,-9.64048 -2.53888,-10.78036 -5.58308,-28.35468 -7.06484,-40.78558 -1.407576,-11.80862 -1.406888,-56.20018 8e-4,-68 C 92.609809,249.32411 102.74129,214.63102 119.6249,180.4 163.21788,92.016992 246.00517,27.55826 342,7.2574582 403.63704,-5.777425 466.52324,-0.92963512 524.80001,21.349201 587.47256,45.308517 641.41909,88.515848 678.93454,144.8 c 49.94148,74.92683 66.14964,167.96118 44.57761,255.87424 -1.11668,4.55084 -1.91373,8.37656 -1.77123,8.50162 0.1425,0.12504 8.35909,3.30004 18.25909,7.05556 15.72654,5.96576 72.58328,27.59092 77.32304,29.40939 l 1.72304,0.66106 -2.21128,7.04907 c -18.87596,60.17321 -53.76823,118.63378 -98.95372,165.7929 l -8.76118,9.14385 -17.97117,-14.74385 c -23.26883,-19.09013 -33.24447,-27.22093 -35.45448,-28.89771 -1.75101,-1.32854 -1.94822,-1.21063 -10.53932,6.30075 -43.23429,37.80065 -92.31897,63.69278 -147.52276,77.81817 C 465.69581,676.93683 427.43159,680.9531 395.6,679.4745 Z m 57.20001,-17.82076 c 16.54649,-2.24547 27.56617,-4.35655 42,-8.04612 84.00452,-21.47317 157.14804,-74.95844 204.15944,-149.289 7.03271,-11.11956 25.05304,-45.86371 25.02648,-48.25239 -0.0103,-0.92469 -14.34302,-7.0164 -53.13663,-22.58419 l -53.12255,-21.31796 -5.64649,11.31796 C 565.05489,517.74072 458.85612,567.10714 357.06147,542.02731 295.96375,526.97426 245.39379,488.49677 213.83699,433.05118 c -3.05168,-5.36185 -6.78343,-12.6488 -8.29276,-16.1932 -1.50932,-3.54441 -3.03811,-6.44744 -3.39729,-6.45118 -0.60761,-0.006 -105.861883,42.15628 -107.116771,42.90868 -0.711864,0.42682 -0.173712,1.70477 7.362851,17.48452 33.91247,71.00464 92.34386,128.64934 164.32163,162.10927 33.05003,15.36379 72.3516,26.15818 107.28535,29.46648 4.84,0.45836 10.06,0.97563 11.6,1.14947 1.54,0.17385 14.5,0.20251 28.80001,0.0637 20.89794,-0.20287 28.43328,-0.58261 38.4,-1.93516 z M 356.8,649.60543 c -9.53102,-2.51866 -19.68417,-7.95268 -26.29478,-14.07309 -9.01253,-8.34422 -9.16558,-7.17315 2.35999,-18.05741 l 9.91507,-9.36338 4.80987,4.60373 c 2.64541,2.53206 6.42985,5.53619 8.40985,6.67586 6.60851,3.80379 16.73112,5.86195 18.08184,3.67645 0.93761,-1.51709 -3.23841,-4.20981 -12.24985,-7.89879 -13.74813,-5.62801 -21.46135,-11.46214 -25.20815,-19.06698 -1.52124,-3.08764 -1.81825,-4.96276 -1.79016,-11.30182 0.0361,-8.14189 1.27723,-12.17662 5.72904,-18.62388 6.2422,-9.04014 19.62727,-13.72174 33.71627,-11.79269 12.96853,1.77564 23.27036,6.55071 32.02341,14.84341 l 5.22637,4.95148 -2.20195,2.61686 c -1.21106,1.43928 -5.47817,6.15874 -9.48245,10.4877 l -7.28051,7.87083 -4.64386,-4.29939 c -2.55412,-2.36466 -6.5728,-5.24314 -8.9304,-6.3966 -5.05133,-2.47138 -12.05256,-3.57388 -12.99648,-2.04657 -0.92364,1.49448 2.19292,3.53947 10.40688,6.82867 14.63006,5.85845 22.83049,11.77096 26.33652,18.98863 7.14304,14.70495 -0.77143,34.64313 -16.13919,40.65795 -6.628,2.59415 -21.35666,2.94956 -29.79733,0.71903 z m 22.51796,-6.69383 c 11.552,-2.71903 18.30997,-11.1597 18.26448,-22.81218 -0.0353,-9.02887 -5.21636,-15.18302 -17.33104,-20.58595 -16.2954,-7.26745 -19.75347,-9.31286 -21.38087,-12.64657 -1.3879,-2.84308 -1.42493,-3.4288 -0.4,-6.32753 1.69417,-4.79152 4.60493,-6.56076 10.59358,-6.43907 5.96118,0.12114 12.42785,2.44693 18.74672,6.74242 l 4.58917,3.11966 4.13478,-4.58119 4.13477,-4.58119 -2.13477,-2.25743 c -3.16699,-3.34896 -14.03293,-8.3627 -21.33478,-9.84424 -18.45637,-3.74481 -32.38208,3.54475 -34.58075,18.10167 -0.92697,6.13734 -0.10495,10.66305 2.63579,14.51148 3.33297,4.68002 7.17412,7.15563 20.2639,13.06 6.33542,2.8577 12.2351,5.83318 13.11042,6.61217 4.55412,4.05299 4.36286,11.7067 -0.36437,14.5815 -3.71235,2.25761 -7.1689,2.60133 -13.30129,1.32269 -6.51367,-1.35814 -12.48422,-4.18359 -18.41677,-8.71542 l -4.25307,-3.24888 -4.54693,4.58385 -4.54693,4.58387 2.4,2.0281 c 12.83366,10.845 30.28991,15.95284 43.71796,12.79224 z m 84.4349,5.32094 c -0.20998,-0.3479 -3.33789,-14.67254 -6.95092,-31.83254 -3.61302,-17.16 -6.65036,-31.28885 -6.74964,-31.39743 -0.0993,-0.10859 -5.48281,0.92025 -11.96341,2.28632 -6.4806,1.36607 -11.89477,2.35491 -12.03151,2.19744 -0.38683,-0.44551 -6.0508,-27.35957 -5.80868,-27.60169 0.11819,-0.11818 17.6071,-3.88272 38.86426,-8.36564 29.06274,-6.12903 38.79884,-7.90894 39.25192,-7.17584 0.7822,1.26563 5.99685,26.36514 5.5645,26.78339 -0.18116,0.17526 -5.51107,1.42517 -11.84426,2.7776 -6.33319,1.35243 -11.61426,2.55833 -11.73571,2.67979 -0.12146,0.12145 2.79841,14.43358 6.4886,31.80472 3.69019,17.37115 6.45126,31.80141 6.13572,32.06726 -0.31555,0.26585 -6.33372,1.64748 -13.37372,3.07029 -7.04,1.42281 -13.39971,2.75612 -14.13268,2.9629 -0.73297,0.20679 -1.50448,0.0913 -1.71447,-0.25657 z M 480.0185,637.5213 c 2.75807,-0.5915 3.98151,-1.24671 3.98151,-2.13228 0,-0.70312 -2.8852,-14.91925 -6.41155,-31.59142 -3.52635,-16.67217 -6.23935,-30.59165 -6.02889,-30.93218 0.21047,-0.34054 5.34566,-1.63202 11.41155,-2.86996 6.06589,-1.23794 11.26997,-2.46335 11.56464,-2.72313 0.29467,-0.25979 -0.0301,-3.28761 -0.72171,-6.72851 -1.13828,-5.6632 -1.41654,-6.22016 -2.93576,-5.87612 -0.92305,0.20903 -14.99828,3.18324 -31.27828,6.60936 -16.28,3.42612 -29.74801,6.33839 -29.92892,6.47171 -0.44655,0.32908 1.46443,10.85245 2.1814,12.01254 0.41895,0.67788 3.6386,0.27615 12.01206,-1.49881 6.29184,-1.33371 11.66241,-2.20221 11.93461,-1.93001 0.2722,0.2722 3.29034,13.71093 6.70699,29.86385 3.41665,16.15292 6.42818,30.22993 6.6923,31.28226 0.52338,2.08533 1.28164,2.08832 10.82005,0.0427 z M 258.76764,615.90163 c -13.18221,-7.49637 -27.84502,-15.79649 -32.58405,-18.44471 l -8.61642,-4.81494 1.52506,-2.52099 c 0.8388,-1.38654 9.37333,-16.38099 18.96565,-33.32099 9.59232,-16.94 19.26343,-34.01283 21.49136,-37.93962 2.22792,-3.92679 4.4224,-7.26067 4.87661,-7.40862 0.70223,-0.22873 62.17023,34.14216 63.71567,35.6277 0.50048,0.48108 -11.17178,21.8708 -12.85126,23.55028 -0.46158,0.46159 -7.79456,-3.254 -19.22606,-9.74177 C 285.90027,555.11958 277.28564,550.4 276.92057,550.4 c -0.36505,0 -1.09995,0.95737 -1.63309,2.12749 -0.7746,1.70004 -0.76021,2.26121 0.0716,2.79311 0.57252,0.36609 8.3001,4.8142 17.17241,9.88468 l 16.13148,9.21906 -6.43963,11.38783 c -3.54179,6.2633 -6.49498,11.46186 -6.56266,11.55234 -0.0677,0.0905 -7.82147,-4.19163 -17.23068,-9.51582 l -17.10767,-9.68034 -1.46115,1.80445 c -0.80364,0.99245 -1.4463,2.21458 -1.42813,2.71582 0.0182,0.50126 8.63416,5.74824 19.14666,11.65995 l 19.11362,10.74857 -1.85598,3.25143 c -1.02079,1.78829 -4.10653,7.21143 -6.85719,12.05143 -2.75066,4.84 -5.05603,8.87457 -5.12304,8.9657 -0.067,0.0911 -10.90728,-5.96769 -24.08947,-13.46407 z m 24.46361,-2.64525 c 1.51151,-2.82898 2.57282,-5.29803 2.35847,-5.48676 C 285.37538,607.5809 276.83,602.6742 266.6,596.86585 256.37,591.0575 248,586.08802 248,585.82255 248,584.77209 257.78812,568 258.40116,568 c 0.36023,0 7.96639,4.14 16.90257,9.2 8.93619,5.06 16.5279,9.2 16.87047,9.2 0.77608,0 5.38988,-7.26547 5.4106,-8.52021 0.008,-0.50611 -7.54698,-5.18611 -16.78964,-10.4 -9.24267,-5.21389 -16.71267,-9.83979 -16.6,-10.27979 0.47345,-1.849 9.06753,-16.62777 9.84217,-16.92502 0.46511,-0.17848 9.08253,4.36663 19.14981,10.10025 10.06727,5.73363 18.5086,10.42429 18.7585,10.42371 1.07809,-0.002 5.99098,-10.37942 5.24238,-11.07284 -1.10766,-1.026 -49.12045,-28.12746 -49.81713,-28.11994 -0.31399,0.003 -1.32345,1.35339 -2.24325,3 -0.9198,1.64662 -9.4698,16.72427 -19,33.5059 -9.5302,16.78164 -17.32764,30.83935 -17.32764,31.23936 0,0.7838 49.44398,29.02544 50.84153,29.03988 0.46284,0.005 2.07822,-2.30592 3.58972,-5.13492 z M 546.59336,599 C 519.95712,558.59198 508.74396,541.42797 508.57481,540.80495 508.41855,540.22934 568.91781,500 569.93971,500 c 0.41673,0 7.19155,9.90565 12.65482,18.50297 l 2.86146,4.50297 -17.92799,11.77951 c -9.86039,6.47873 -17.92799,12.21358 -17.92799,12.74413 0,0.53053 0.47609,1.61571 1.05799,2.4115 1.33132,1.8207 1.09748,1.94345 19.68317,-10.3327 7.66765,-5.06461 14.1816,-9.20838 14.47545,-9.20838 0.63473,0 14.38339,20.4959 14.38339,21.44214 0,0.35876 -7.36538,5.46026 -16.36751,11.33665 l -16.36751,10.68435 1.36466,2.31018 c 0.79164,1.34014 1.86973,2.17346 2.56751,1.98458 0.66157,-0.17909 8.91202,-5.41788 18.33434,-11.64176 9.42232,-6.22388 17.52232,-11.30543 18,-11.29232 0.47768,0.0131 4.17319,5.14 8.21224,11.39313 l 7.34372,11.36932 -18.16454,12.00687 C 570.47125,612.23708 560.93237,618.4 560.15517,618.4 c -0.42552,0 -6.52834,-8.73 -13.56181,-19.4 z m 39.91192,-6.68232 c 13.14613,-8.62527 24.09386,-15.99267 24.3283,-16.372 0.43852,-0.70953 -5.24126,-10.27218 -6.12921,-10.31935 -0.27261,-0.0145 -8.48312,5.20051 -18.24559,11.58886 -9.76246,6.38836 -18.06739,11.69836 -18.4554,11.8 -0.67889,0.17785 -12.31729,-16.97148 -11.83816,-17.44368 0.42905,-0.42285 26.58323,-17.60577 29.63479,-19.46964 1.65,-1.0078 3,-1.98854 3,-2.17942 0,-0.48151 -5.76575,-9.12245 -6.08703,-9.12245 -0.14327,0 -7.65302,4.84841 -16.68833,10.77424 l -16.42784,10.77424 -5.2941,-8.1582 c -6.39458,-9.85403 -6.3446,-9.7343 -4.44691,-10.6533 3.27453,-1.58576 34.50631,-22.37476 34.52469,-22.98088 0.0107,-0.35414 -1.44009,-2.79326 -3.22407,-5.42028 -2.07518,-3.05584 -3.58809,-4.5668 -4.2,-4.19458 -5.42423,3.29962 -47.75641,31.50884 -47.75641,31.82382 0,0.56134 4.06383,6.84303 22.79464,35.23494 8.70836,13.2 16.68659,25.35 17.7294,27 1.04281,1.65 2.11724,3 2.3876,3 0.27036,0 11.24749,-7.05704 24.39363,-15.68232 z M 167.26361,547.0733 c -4.94811,-6.63319 -8.69665,-12.35587 -8.33009,-12.71706 0.36657,-0.36119 7.49731,-5.7191 15.84611,-11.90647 8.96592,-6.64474 14.53301,-11.25189 13.6,-11.25494 -0.8688,-0.003 -7.09081,0.41598 -13.8267,0.93071 -12.05081,0.92087 -12.27439,0.90855 -13.95173,-0.76879 l -1.70466,-1.70465 4.98173,-12.52939 c 2.73995,-6.89116 4.81599,-12.69512 4.61343,-12.89769 -0.20257,-0.20256 -7.19523,4.70395 -15.53926,10.90335 -8.34402,6.1994 -15.33261,11.27163 -15.5302,11.27163 -0.76622,0 -17.53843,-23.24922 -17.28784,-23.96398 0.14608,-0.41667 16.6456,-12.8812 36.6656,-27.69895 20.02,-14.81776 36.83035,-27.28318 37.35634,-27.70094 0.68451,-0.54367 3.23341,2.31605 8.96761,10.06116 4.40621,5.95139 8.44046,11.50793 8.96501,12.34788 0.80747,1.29295 -0.0492,3.89337 -5.58591,16.95603 -3.59681,8.48588 -6.40822,15.56029 -6.2476,15.72092 0.16063,0.16062 7.03595,-0.43114 15.27849,-1.31503 8.24253,-0.88391 15.81835,-1.60709 16.83514,-1.60709 1.44804,0 3.76688,2.55743 10.69914,11.8 8.27827,11.03717 8.76254,11.88446 7.4911,13.10648 -1.23263,1.18471 -71.38101,53.24597 -73.42923,54.49617 -0.50974,0.31114 -4.59478,-4.46238 -9.86648,-11.52935 z m 42.22567,-21.92916 c 17.0009,-12.57071 31.02651,-23.17808 31.16803,-23.57193 0.19838,-0.55207 -4.22301,-6.88781 -9.96284,-14.2765 -0.13,-0.16736 -9.62872,0.68336 -21.10826,1.8905 -11.47954,1.20713 -21.06157,2.00509 -21.29342,1.77325 -0.23184,-0.23184 3.20744,-8.9642 7.64284,-19.40524 4.4354,-10.44103 8.06437,-19.30104 8.06437,-19.6889 0,-0.96 -9.84917,-14.18959 -10.59522,-14.23171 -0.32737,-0.0185 -13.10737,9.24805 -28.4,20.59229 -15.29263,11.34424 -29.32709,21.69424 -31.1877,23 -1.86061,1.30576 -3.39061,2.59041 -3.4,2.8548 -0.0316,0.88837 8.02834,11.1193 8.75977,11.1193 0.55092,0 40.78803,-29.41986 46.26678,-33.82853 1.09637,-0.88224 0.37171,1.13771 -7.83106,21.82853 -7.3113,18.44216 -8.20378,20.87546 -7.80346,21.27577 0.20095,0.20095 9.43884,-0.385 20.52866,-1.30212 11.08982,-0.91711 21.2678,-1.55637 22.61774,-1.42057 2.23259,0.2246 0.54673,1.65103 -18.65053,15.78059 C 172.82143,533.34599 169.6,535.86086 169.6,536.82014 c 0,0.74948 7.94519,11.17986 8.5161,11.17986 0.25435,0 14.37229,-10.28514 31.37318,-22.85586 z m 408.88357,-7.41261 c -23.43982,-16.22615 -37.937,-26.7526 -37.8792,-27.50423 0.0515,-0.66971 6.15256,-9.93183 13.5579,-20.58249 14.46145,-20.79904 19.45311,-26.31276 27.31339,-30.16995 4.15642,-2.03965 5.46294,-2.27455 12.65189,-2.2747 7.45293,-1.5e-4 8.394,0.18552 13.37915,2.6397 11.20949,5.51842 18.16152,14.60413 19.94315,26.06404 l 0.94774,6.0961 10.45657,0.10178 c 5.75111,0.056 14.2898,0.32597 18.97486,0.6 l 8.51828,0.49822 -9.17284,13.2 c -5.04507,7.26 -9.46299,13.7043 -9.81761,14.32066 -0.51519,0.89544 -2.79523,1.06538 -11.34544,0.84563 -20.71051,-0.53227 -20.78685,-0.52795 -21.9681,1.24215 -1.00693,1.50891 -0.43161,2.04853 9.29703,8.71991 5.70372,3.91131 10.37039,7.51108 10.37039,7.9995 0,0.98937 -15.77381,23.95119 -16.68017,24.28121 -0.31578,0.11497 -17.66193,-11.61992 -38.54699,-26.07753 z m 40.72724,9.93773 c 2.25496,-3.26191 4.09992,-6.11769 4.09992,-6.34619 0,-0.22849 -4.48145,-3.50401 -9.95878,-7.27894 -5.47733,-3.77494 -10.16429,-7.19606 -10.41549,-7.6025 -0.2512,-0.40644 1.58137,-3.63452 4.07237,-7.17352 l 4.52909,-6.43453 6.8864,0.36902 c 3.78753,0.20297 10.7209,0.54982 15.4075,0.77078 l 8.52109,0.40173 4.92286,-7.18755 L 692.0879,480 h -6.71835 c -3.69509,0 -11.12026,-0.23669 -16.50039,-0.52598 l -9.78206,-0.52597 0.54137,-5.77719 c 0.78496,-8.37669 -0.93071,-13.70593 -6.20926,-19.28721 -11.51525,-12.17568 -25.80746,-12.52237 -37.25442,-0.90369 -3.4998,3.5523 -25.81069,34.60114 -25.73936,35.82004 0.0129,0.22 6.94243,5.14774 15.39899,10.95054 8.45658,5.8028 22.92512,15.7928 32.15232,22.2 9.22719,6.4072 16.83223,11.64946 16.90008,11.64946 0.0678,0 1.96832,-2.66883 4.22327,-5.93074 z m -38.30008,-36.09665 c -5.94,-4.17074 -10.68948,-8.00234 -10.5544,-8.51468 0.71297,-2.70419 12.67626,-18.58059 15.31861,-20.3292 6.10559,-4.04049 13.50818,-3.01875 18.38695,2.53787 2.93825,3.34648 3.56423,5.56958 3.05643,10.85442 -0.3294,3.42813 -1.3498,5.43491 -6.79151,13.35662 -3.52212,5.1273 -6.90161,9.40241 -7.50997,9.50024 -0.60836,0.0978 -5.96611,-3.23454 -11.90611,-7.40527 z m 14.56635,-8.82128 c 4.95659,-7.30565 5.3217,-9.01087 2.61747,-12.22467 -2.80514,-3.33372 -6.43001,-3.46109 -9.29622,-0.32666 -3.35994,3.67436 -8.03855,10.54754 -7.75473,11.39219 0.3986,1.18619 8.94154,7.18763 9.86713,6.93168 0.44,-0.12166 2.49485,-2.7193 4.56635,-5.77254 z M 136.8,588.12182 c 9.9,-8.12996 18.13365,-14.88691 18.29699,-15.01544 0.16334,-0.12852 -3.40012,-4.20221 -7.91879,-9.05264 -18.97275,-20.36564 -38.29929,-47.39692 -51.348167,-71.81869 -2.208712,-4.13375 -4.176232,-7.35551 -4.372264,-7.15948 -0.556504,0.5565 1.2982,25.53935 2.622456,35.32443 3.4532,25.51614 9.740285,50.00352 18.821075,73.30574 2.71621,6.97004 4.32404,10.13315 4.95904,9.75597 0.51681,-0.30697 9.03966,-7.20992 18.93966,-15.33989 z M 709.88772,585.461 c 10.32515,-28.50106 18.25311,-69.86918 18.06458,-94.261 -0.0528,-6.83398 0.3437,-7.14088 -6.27185,4.8541 -13.00526,23.58048 -28.76968,45.47844 -48.52327,67.40247 -7.64433,8.48426 -7.76931,8.68626 -6.27838,10.14804 0.83666,0.8203 9.26121,7.80923 18.72121,15.53095 l 17.2,14.03949 1.75767,-3.92653 c 0.96671,-2.15958 3.36523,-8.36397 5.33004,-13.78752 z M 90.794569,577.35465 C 85.116801,559.46342 80.382145,536.81423 77.885179,515.6 76.346799,502.5299 75.820606,460.95269 77.04985,449.59643 l 0.649849,-6.00357 34.750151,-13.95773 C 132.84428,421.4435 147.2,415.25498 147.2,414.65488 c 0,-0.86962 -2.27739,-7.34558 -2.85212,-8.11024 -0.18301,-0.2435 -124.475076,46.91589 -124.979345,47.42016 -0.133287,0.13329 1.25388,4.33574 3.082592,9.33877 13.175709,36.04641 32.57703,72.54604 54.116713,101.80955 5.897217,8.01188 16.457169,21.32854 16.711553,21.07416 0.132848,-0.13286 -0.98532,-4.10754 -2.484824,-8.83263 z M 738.78995,570.8 c 19.54184,-25.99289 36.04617,-54.02315 48.00145,-81.52365 4.37053,-10.05345 13.36957,-33.38205 13.01423,-33.73739 -0.13186,-0.13187 -6.35208,-2.54971 -13.82269,-5.37298 -13.81312,-5.22021 -54.83196,-20.82415 -82.38293,-31.33921 -27.06304,-10.32885 -29.26019,-11.08839 -29.93273,-10.34771 -0.36003,0.39652 -1.2258,2.44618 -1.92392,4.55481 -1.24775,3.76872 -1.23936,3.84535 0.49366,4.50909 8.0275,3.07448 68.37833,27.43637 69.12796,27.90496 1.49986,0.93758 2.88316,27.1138 2.26981,42.95208 -1.19085,30.75121 -5.51554,57.82581 -13.60919,85.2 -1.49608,5.06 -2.98491,9.92 -3.30852,10.8 l -0.58838,1.6 1.81973,-1.6 c 1.00086,-0.88 5.87953,-7 10.84152,-13.6 z M 435.75903,531.59722 c 47.04146,-5.99308 88.83191,-26.26726 122.13986,-59.2548 21.25705,-21.05256 37.38572,-45.55422 48.14735,-73.14242 1.78857,-4.58513 3.02838,-6.73067 3.80642,-6.58714 0.63463,0.11707 10.94276,4.16707 22.90695,9 11.96419,4.83292 22.20878,8.78714 22.76575,8.78714 0.5955,0 2.20308,-3.87242 3.9023,-9.4 4.11628,-13.39041 4.80992,-16.35413 3.95872,-16.91465 C 662.981,383.81841 652.6749,376.58 640.48394,368 c -21.76636,-15.31917 -22.1572,-15.64321 -21.71119,-18 1.0914,-5.76706 1.41178,-39.00634 0.45912,-47.63322 l -0.98388,-8.90966 1.87601,-1.32206 c 1.03181,-0.72712 11.23601,-7.37655 22.67601,-14.77649 11.44,-7.39995 20.91275,-13.95395 21.05056,-14.56446 0.53497,-2.36997 -8.7994,-32.29297 -11.85433,-38.00114 l -0.97876,-1.82883 -27.78822,0.56731 -27.78824,0.56731 -3.45387,-5.84938 c -7.82106,-13.24554 -14.93285,-22.99362 -25.43994,-34.87036 l -5.85744,-6.62098 0.97818,-2.97902 c 0.538,-1.63846 4.8828,-13.0318 9.65512,-25.31854 4.77231,-12.28673 8.67667,-22.72673 8.67635,-23.2 -8e-4,-1.24827 -11.61774,-10.39377 -23.37254,-18.40022 l -10.17313,-6.929132 -22.15603,16.509102 c -12.18582,9.08001 -22.5564,16.66275 -23.04574,16.85052 -0.48934,0.18778 -4.30122,-1.11883 -8.47084,-2.90358 -10.44661,-4.47153 -27.48521,-9.86427 -38.22131,-12.0971 -6.17864,-1.285 -9.0759,-2.24311 -9.30743,-3.07793 -0.1849,-0.66668 -3.47774,-12.73214 -7.31742,-26.81214 -3.83968,-14.08 -7.37582,-25.864487 -7.8581,-26.18775 -1.05741,-0.708761 -33.1976,-0.814188 -38.16522,-0.125191 l -3.51166,0.48706 -7.99724,26.429785 c -4.39848,14.536376 -8.35848,26.859866 -8.8,27.385516 -0.44152,0.52565 -3.83336,1.58367 -7.53742,2.35114 -9.26098,1.91886 -26.65423,7.65231 -37.48174,12.35534 l -9.01642,3.91636 -21.88651,-17.50613 C 283.64308,107.87776 273.37846,100 272.8704,100 c -1.44288,0 -16.57403,10.39207 -25.59368,17.57774 -7.01021,5.5848 -8.08393,6.7486 -7.62193,8.2614 0.29577,0.96848 4.45444,13.08294 9.24149,26.92104 4.78705,13.83808 8.70211,25.53808 8.70013,26 -0.002,0.4619 -2.00842,3.08723 -4.45877,5.83406 -7.08754,7.94511 -17.17868,21.79306 -22.71024,31.165 -2.80499,4.75242 -5.18275,8.75486 -5.2839,8.8943 -0.10115,0.13945 -11.73714,-0.31055 -25.85775,-1 C 185.16515,222.9641 172.19541,222.4 170.46411,222.4 h -3.14781 l -2.37451,6.2 c -3.30222,8.62233 -4.66035,12.75677 -7.80836,23.7704 -2.1792,7.62422 -2.53192,9.76351 -1.73445,10.52001 0.55056,0.52228 10.00102,7.17684 21.00102,14.78791 11,7.61108 21.31986,14.75708 22.93303,15.88 l 2.93302,2.04168 -0.53302,5.2 c -0.624,6.08757 -0.7123,35.99499 -0.13303,45.05867 l 0.4,6.25867 -23.5987,15.53744 c -12.97929,8.54559 -23.71959,15.90009 -23.86734,16.34335 -0.28524,0.85571 6.05466,23.16542 7.03285,24.74817 0.40266,0.6515 7.78821,-1.97662 24.4672,-8.70656 13.13974,-5.30185 24.27294,-9.63974 24.74044,-9.63974 0.4675,0 1.51245,1.89 2.3221,4.2 18.53908,52.89341 63.03334,99.95564 115.09261,121.73515 20.52704,8.58769 37.81138,12.98795 62.61084,15.93948 7.16537,0.85279 36.40625,0.41222 44.95903,-0.67741 z M 399.6,518.66006 c -40.53704,-2.54919 -75.57572,-15.39452 -108.36647,-39.72761 -9.81444,-7.28302 -29.99414,-27.48722 -37.544,-37.58958 -28.5487,-38.20059 -42.04741,-82.86673 -39.23476,-129.82457 5.06206,-84.51204 64.55388,-156.5262 146.6306,-177.49463 18.30415,-4.67622 26.48811,-5.61016 48.91464,-5.58205 22.45777,0.0282 32.70985,1.30624 51.26054,6.39042 62.66817,17.17543 113.60958,65.62704 133.91831,127.37293 7.51506,22.84853 10.07776,41.19025 9.406,67.32069 -0.98713,38.3986 -11.6213,71.34408 -33.46408,103.67434 -29.5003,43.66444 -75.96274,73.57566 -128.62401,82.80453 -8.47232,1.48477 -31.04059,3.36981 -36.49677,3.04844 -1.32,-0.0778 -4.2,-0.25456 -6.4,-0.39291 z m 33.19149,-16.72351 c 59.29114,-7.69249 111.99184,-45.43389 138.29556,-99.03985 8.15168,-16.6128 13.25979,-32.59166 16.65425,-52.0967 2.0254,-11.63818 2.01356,-43.12774 -0.0206,-54.8 -6.90217,-39.60556 -23.7094,-72.54858 -50.93685,-99.83884 -38.11779,-38.20572 -91.06039,-57.3056 -144.4449,-52.11078 -49.58011,4.82461 -96.65425,31.09764 -126.0475,70.34962 -18.32881,24.47644 -28.67382,48.14148 -34.44687,78.8 -1.58145,8.39847 -1.80627,12.15326 -1.79631,30 0.0122,21.77562 0.68198,27.94493 4.79623,44.17554 17.98332,70.94378 78.25309,124.72464 150.7555,134.5245 11.68234,1.57906 35.16205,1.59722 47.19149,0.0365 z M 296,379.2 v -64 H 281.98735 267.97469 L 268.18735,293 268.4,270.8 282.2,270.58111 296,270.36222 V 267.18111 264 l 15,0.0306 15,0.0306 17.76936,14.96945 17.76936,14.96945 0.0306,10.6 L 361.6,315.2 h -16 -16 v 64 64 H 312.8 296 Z m 21.6,-12 v -64 h 16 c 15.13656,0 16,-0.0813 16,-1.50674 0,-0.95791 -4.42758,-5.25608 -12.15526,-11.8 -17.73815,-15.02092 -16.01196,-13.9928 -23.04098,-13.72338 L 308.4,276.4 l -0.246,3.4 -0.246,3.4 H 293.954 280 v 10 10 h 14 14 v 64 64 h 4.8 4.8 z m 172.00001,12 v -64 h -14 -14 v -22.4 -22.4 h 14 14 v -3.2 -3.2 l 15,0.0245 15,0.0245 17.75736,14.9755 17.75736,14.97548 0.0426,10.6 0.0426,10.60006 h -16 -16 v 64 64 h -16.8 -16.8 z m 21.6,-12 v -64 h 16 c 14.90444,0 16,-0.0991 16,-1.44742 0,-1.48646 -1.20293,-2.59932 -18.49276,-17.10793 l -10.09275,-8.46925 -6.30725,0.1123 -6.30724,0.1123 -0.246,3.4 -0.246,3.4 h -13.954 -13.954 v 10 10 h 14 14 v 64 64 h 4.8 4.8 z M 391.2,289.6 v -64 h -14.01265 -14.01266 l 0.21266,-22.2 0.21265,-22.2 13.75283,-0.21869 13.75281,-0.21869 0.24719,-2.98131 L 391.6,174.8 l 14.9604,-0.2175 14.9604,-0.21752 18.03961,15.27184 18.0396,15.27184 V 215.25433 225.6 h -16 -16 v 64 64 H 408.4 391.2 Z m 21.60001,-12 v -64 h 15.95278 c 9.68734,0 16.14544,-0.31171 16.4433,-0.79366 0.86983,-1.40741 -0.563,-2.83833 -14.77016,-14.75057 l -13.97408,-11.7168 -6.02592,0.23051 L 404.4,186.8 l -0.246,3.4 -0.246,3.4 H 389.954 376 v 10 10 h 14 14 v 64 64 h 4.4 4.40001 z M 709.48251,393 C 721.4647,342.66017 719.9565,288.10632 705.17523,237.2 691.06505,188.60487 665.74966,145.48914 629.63262,108.54012 578.08869,55.808834 512.51663,24.310929 438.40001,16.680458 426.5428,15.459732 392.65721,15.459732 380.8,16.680458 325.99976,22.322265 275.39177,41.185157 231.58988,72.294893 131.44619,143.42069 83.329553,265.66816 108.11549,386 c 1.35947,6.6 2.6516,12.81 2.8714,13.8 0.2198,0.99 0.8552,1.8 1.41199,1.8 0.5568,0 6.61847,-2.16 13.47038,-4.8 6.85191,-2.64 12.83438,-4.8 13.29438,-4.8 1.12803,0 1.08744,-0.41649 -0.82537,-8.47048 -1.35579,-5.70857 -1.46626,-7.11386 -0.6,-7.63254 0.58395,-0.34966 11.68173,-7.61362 24.66173,-16.14215 18.37535,-12.07355 23.55842,-15.84385 23.41218,-17.03062 -0.36582,-2.96867 -0.27436,-37.17639 0.10102,-37.78376 0.20967,-0.33927 0.12444,-1.03234 -0.18941,-1.54015 -0.31385,-0.50783 -10.30493,-7.69064 -22.2024,-15.96181 -11.89747,-8.27117 -22.67283,-15.80935 -23.94524,-16.75152 l -2.31346,-1.71303 2.26137,-9.88697 c 4.21882,-18.44519 15.93169,-51.42135 18.63258,-52.45778 0.61882,-0.23746 8.39673,-0.0277 17.28424,0.46609 8.88752,0.49381 21.73912,1.11469 28.55912,1.37974 l 12.4,0.4819 6.52493,-9.87846 c 3.5887,-5.43316 9.01355,-12.9624 12.05521,-16.73166 l 5.53029,-6.8532 -9.45522,-27.10518 C 225.85485,133.48056 221.6,120.86377 221.6,120.35109 c 0,-3.07527 27.7262,-24.604138 45.76188,-35.533226 l 6.96187,-4.218688 22.60634,18.149728 c 13.84899,11.118796 23.08352,18.005126 23.83813,17.776446 0.67748,-0.20529 5.12362,-1.86446 9.88032,-3.68702 4.7567,-1.82257 13.2167,-4.60894 18.8,-6.19195 5.5833,-1.583 10.23046,-2.93502 10.32702,-3.00449 0.0966,-0.0694 3.91021,-12.440986 8.4748,-27.492246 4.56459,-15.051258 8.47588,-27.542544 8.69175,-27.758412 0.21586,-0.215868 4.3222,-0.792525 9.12519,-1.28146 8.98735,-0.914896 51.98684,-0.536222 55.22564,0.486343 1.06233,0.335403 2.0012,1.627652 2.52051,3.469192 0.45516,1.614081 3.82136,13.993224 7.48044,27.509207 l 6.65286,24.574516 2.42662,0.51747 c 5.92575,1.26367 21.86492,6.14543 29.909,9.16036 l 8.79194,3.29524 17.46285,-13.08059 c 9.60457,-7.194326 20.04736,-14.976982 23.20621,-17.29479 l 5.74336,-4.214192 8.64543,5.293104 c 4.75499,2.911208 12.25048,7.866784 16.65664,11.012384 8.99549,6.421964 26.75165,21.075904 27.3143,22.542154 0.20194,0.52625 -1.6694,6.14599 -4.15854,12.48832 -14.8616,37.86747 -15.64032,40.08733 -14.5717,41.53883 0.56493,0.76734 3.78144,4.76961 7.14779,8.89392 6.10389,7.47824 16.67936,22.69076 16.67936,23.99281 0,0.37743 13.20951,0.78067 29.35447,0.89609 l 29.35448,0.20986 4.29515,10.4 c 7.28434,17.63779 16.71003,51.0603 14.75553,52.32157 -0.40777,0.26313 -11.05571,7.10759 -23.6621,15.2099 -22.84089,14.68019 -22.91922,14.74007 -22.49476,17.2 0.59746,3.46262 0.86982,24.97148 0.43084,34.0244 l -0.3664,7.55587 22.3664,15.79284 c 12.30151,8.68606 22.70306,16.32184 23.11454,16.96842 0.48952,0.76918 0.2367,3.41491 -0.73132,7.6533 -0.81371,3.56275 -1.23491,6.72229 -0.93599,7.0212 0.67949,0.6795 26.18068,10.52813 27.44648,10.59992 0.53981,0.0306 1.94188,-4.20982 3.35518,-10.14742 z"
     id="path12"
     inkscape:connector-curvature="0"
     inkscape:label="path12" />
</svg>
