<?xml version="1.0" encoding="UTF-8" standalone="no"?>
<svg
   xmlns:dc="http://purl.org/dc/elements/1.1/"
   xmlns:cc="http://creativecommons.org/ns#"
   xmlns:rdf="http://www.w3.org/1999/02/22-rdf-syntax-ns#"
   xmlns:svg="http://www.w3.org/2000/svg"
   xmlns="http://www.w3.org/2000/svg"
   viewBox="0 0 1122.52 571.52901"
   height="571.52899"
   width="1122.52"
   xml:space="preserve"
   id="svg2"
   version="1.1"><metadata
     id="metadata8"><rdf:RDF><cc:Work
         rdf:about=""><dc:format>image/svg+xml</dc:format><dc:type
           rdf:resource="http://purl.org/dc/dcmitype/StillImage" /><dc:title></dc:title></cc:Work></rdf:RDF></metadata><defs
     id="defs6"><clipPath
       id="clipPath20"
       clipPathUnits="userSpaceOnUse"><path
         id="path18"
         d="M 0,595.28 H 841.89 V 0 H 0 Z" /></clipPath></defs><g
     transform="matrix(1.3333333,0,0,-1.3333333,0,571.52896)"
     id="g10"><path
       d="M 8.4581772,222.09402 H 61.349526 c 29.743845,0 94.975054,23.5956 94.975054,93.68373 0,68.90281 -59.333506,97.51435 -91.096266,97.51435 -27.103373,0 -48.212692,0.0288 -56.7701368,0.0482 z M 61.349526,213.8064 H 0.17056329 v 207.83113 l 4.16309321,-0.005 c 0,0 25.2675665,-0.0722 60.8946575,-0.0722 34.653778,0 99.379066,-31.02072 99.379066,-105.78267 0,-76.28939 -70.912078,-101.97136 -103.257854,-101.97136"
       style="fill:#231f20;fill-opacity:1;fill-rule:nonzero;stroke:none;stroke-width:4.81837893"
       id="path24" /><path
       id="path26"
       style="fill:#231f20;fill-opacity:1;fill-rule:nonzero;stroke:none;stroke-width:4.81837893"
       d="m 191.82881,213.33565 h -8.29243 v 206.09651 h 8.29243 z" /><path
       d="m 301.06627,212.32088 c -59.35279,0 -90.97099,51.42658 -90.97099,88.55217 h 8.2876 c 0,-33.64673 28.73682,-80.26455 82.68339,-80.26455 52.74197,0 75.56182,49.28721 75.56182,74.4295 0,10.92327 0.3421,26.13007 0.52038,33.44919 H 204.7517 l 77.59035,92.96579 6.36026,-5.3002 -66.24308,-79.39243 h 163.20813 l -0.13007,-4.25463 c -0.009,-0.22646 -0.63601,-22.77165 -0.63601,-37.46772 0,-27.94177 -25.31095,-82.71712 -83.83497,-82.71712"
       style="fill:#231f20;fill-opacity:1;fill-rule:nonzero;stroke:none;stroke-width:4.81837893"
       id="path30" /><path
       d="M 528.46627,212.51845 H 407.07204 v 208.48162 h 121.39423 v -8.2828 H 415.35002 V 220.81088 h 113.11625 z"
       style="fill:#231f20;fill-opacity:1;fill-rule:nonzero;stroke:none;stroke-width:4.81837893"
       id="path34" /><path
       id="path36"
       style="fill:#231f20;fill-opacity:1;fill-rule:nonzero;stroke:none;stroke-width:4.81837893"
       d="m 457.02756,313.5772 h -45.18195 v 8.28761 h 45.18195 z" /><path
       d="M 726.98925,208.10963 555.94647,406.36665 V 213.33757 h -8.278 V 428.64683 L 718.71129,230.38981 v 189.14064 h 8.27796 z"
       style="fill:#231f20;fill-opacity:1;fill-rule:nonzero;stroke:none;stroke-width:4.81837893"
       id="path40" /><path
       d="M 8.9332717,8.2924337 H 76.067748 c 24.111162,0 69.071442,23.0800403 69.071442,67.1874703 0,43.447336 -34.77906,59.487706 -35.12114,59.651536 l -2.45739,1.07932 v 2.68383 c 0,27.37803 -24.660449,45.75051 -47.692299,45.75051 H 8.3116973 Z M 76.067748,3.7207032e-6 H 0.66975659 L 0,192.93271 h 59.868361 c 29.459557,0 54.457309,-23.30651 55.907649,-51.45065 8.69235,-4.73647 37.64117,-23.64862 37.64117,-66.002156 C 153.41718,25.922884 103.06513,3.7207033e-6 76.067748,3.7207033e-6"
       style="fill:#231f20;fill-opacity:1;fill-rule:nonzero;stroke:none;stroke-width:4.81837893"
       id="path44" /><path
       d="m 203.30136,0.18985372 h -8.28762 V 94.764994 l -70.41577,93.476536 6.61082,4.97257 72.09257,-95.678546 z"
       style="fill:#231f20;fill-opacity:1;fill-rule:nonzero;stroke:none;stroke-width:4.81837893"
       id="path48" /><path
       d="m 202.51068,93.738684 -6.7072,4.8521 68.67635,95.023246 6.72164,-4.84248 z"
       style="fill:#231f20;fill-opacity:1;fill-rule:nonzero;stroke:none;stroke-width:4.81837893"
       id="path52" /><path
       d="m 587.51069,0.65578372 h -59.2227 c -31.78683,0 -97.42279,23.18123028 -97.42279,94.83534028 0,69.389456 60.65857,99.383866 91.60702,99.383866 h 17.47626 v -8.27796 h -17.47626 c -28.15378,0 -83.32422,-27.50333 -83.32422,-91.105906 0,-71.85648 70.3146,-86.5429103 89.13999,-86.5429103 H 579.2279 V 121.80429 h -43.16304 v 8.27313 h 51.44583 z"
       style="fill:#231f20;fill-opacity:1;fill-rule:nonzero;stroke:none;stroke-width:4.81837893"
       id="path56" /><path
       d="m 412.5809,0.65578372 h -59.20824 c -31.79648,0 -97.43726,23.18123028 -97.43726,94.83534028 0,69.389456 60.65858,99.383866 91.60221,99.383866 h 17.4859 v -8.27796 h -17.4859 c -28.14416,0 -83.32423,-27.50333 -83.32423,-91.105906 0,-71.85648 70.31942,-86.5429103 89.15928,-86.5429103 h 50.92545 V 121.80429 h -43.15822 v 8.27313 h 51.44101 z"
       style="fill:#231f20;fill-opacity:1;fill-rule:nonzero;stroke:none;stroke-width:4.81837893"
       id="path60" /><path
       d="m 807.97946,428.34809 -33.84911,-61.16451 h 67.23566 z"
       style="fill:#ffffff;fill-opacity:1;fill-rule:nonzero;stroke:none;stroke-width:4.81837893"
       id="path64" /></g></svg>