<?xml version="1.0" encoding="UTF-8" standalone="no"?>
<!-- Created with Inkscape (http://www.inkscape.org/) -->

<svg
   xmlns:dc="http://purl.org/dc/elements/1.1/"
   xmlns:cc="http://creativecommons.org/ns#"
   xmlns:rdf="http://www.w3.org/1999/02/22-rdf-syntax-ns#"
   xmlns:svg="http://www.w3.org/2000/svg"
   xmlns="http://www.w3.org/2000/svg"
   xmlns:sodipodi="http://sodipodi.sourceforge.net/DTD/sodipodi-0.dtd"
   xmlns:inkscape="http://www.inkscape.org/namespaces/inkscape"
   version="1.1"
   id="svg2"
   xml:space="preserve"
   width="207.705"
   height="223.57201"
   viewBox="0 0 207.705 223.57201"
   sodipodi:docname="sg_gold.svg"
   inkscape:version="0.92.3 (2405546, 2018-03-11)"><metadata
     id="metadata8"><rdf:RDF><cc:Work
         rdf:about=""><dc:format>image/svg+xml</dc:format><dc:type
           rdf:resource="http://purl.org/dc/dcmitype/StillImage" /><dc:title></dc:title></cc:Work></rdf:RDF></metadata><defs
     id="defs6"><linearGradient
       x1="0"
       y1="0"
       x2="1"
       y2="0"
       gradientUnits="userSpaceOnUse"
       gradientTransform="matrix(0,96.415955,96.415955,0,77.889339,70.562174)"
       spreadMethod="pad"
       id="linearGradient38"><stop
         style="stop-opacity:1;stop-color:#644616"
         offset="0"
         id="stop26" /><stop
         style="stop-opacity:1;stop-color:#644616"
         offset="0.0112205"
         id="stop28" /><stop
         style="stop-opacity:1;stop-color:#9d842a"
         offset="0.21470613"
         id="stop30" /><stop
         style="stop-opacity:1;stop-color:#9d842a"
         offset="0.382653"
         id="stop32" /><stop
         style="stop-opacity:1;stop-color:#644616"
         offset="0.774972"
         id="stop34" /><stop
         style="stop-opacity:1;stop-color:#8c7519"
         offset="1"
         id="stop36" /></linearGradient><clipPath
       clipPathUnits="userSpaceOnUse"
       id="clipPath48"><path
         d="M 0,595.28 H 841.89 V 0 H 0 Z"
         id="path46"
         inkscape:connector-curvature="0" /></clipPath></defs><sodipodi:namedview
     pagecolor="#ffffff"
     bordercolor="#666666"
     borderopacity="1"
     objecttolerance="10"
     gridtolerance="10"
     guidetolerance="10"
     inkscape:pageopacity="0"
     inkscape:pageshadow="2"
     inkscape:window-width="1920"
     inkscape:window-height="1017"
     id="namedview4"
     showgrid="false"
     inkscape:zoom="1.3"
     inkscape:cx="338.50359"
     inkscape:cy="249.17585"
     inkscape:window-x="-8"
     inkscape:window-y="-8"
     inkscape:window-maximized="1"
     inkscape:current-layer="g14" /><g
     id="g10"
     inkscape:groupmode="layer"
     inkscape:label="SG_GULL_HVITBOKS"
     transform="matrix(1.3333333,0,0,-1.3333333,0,223.572)"><g
       id="g14"
       inkscape:label="logo"><path
         inkscape:connector-curvature="0"
         id="path40"
         style="fill:url(#linearGradient38);stroke:none"
         d="m 34.611399,167.388 v -51.727 c 0,-0.245 -0.285,-0.38 -0.475,-0.224 v 0 L 1.3033989,142.438 c -0.19,0.157 -0.475,0.022 -0.475,-0.224 v 0 -71.251996 c 0,-0.16 0.13,-0.291 0.29,-0.291 v 0 h 33.5120001 50.445 3.64 34.695001 31.249 c 0.161,0 0.291,0.131 0.291,0.291 v 0 V 151.71 c 0,0.245 -0.284,0.38 -0.474,0.225 v 0 l -50.028,-40.84 c -0.108,-0.087 -0.261,-0.087 -0.368,0.001 v 0 l -68.995001,56.516 c -0.056,0.046 -0.12,0.067 -0.183,0.067 v 0 c -0.149,0 -0.291,-0.118 -0.291,-0.291 m 45.744,-89.853996 -38.841,31.845996 c -0.067,0.055 -0.106,0.137 -0.106,0.225 v 0 43.429 c 0,0.245 0.284,0.38 0.474,0.224 v 0 L 98.6234,106.784 c 0.142,-0.116 0.142,-0.333 0,-0.449 v 0 L 85.192399,95.358004 c -0.067,-0.056 -0.107,-0.138 -0.107,-0.225 v 0 -17.374 c 0,-0.16 -0.13,-0.291 -0.29,-0.291 v 0 h -4.256 c -0.067,0 -0.132,0.024 -0.184,0.066 m 43.011001,0.225 v 17.37 c 0,0.087 -0.039,0.17 -0.107,0.225 v 0 l -13.37,10.971996 c -0.141,0.116 -0.141,0.333 0.001,0.449 v 0 l 37.789,30.837 c 0.19,0.154 0.474,0.02 0.474,-0.225 v 0 -59.627996 c 0,-0.16 -0.13,-0.291 -0.29,-0.291 v 0 h -24.207 c -0.16,0 -0.29,0.131 -0.29,0.291 m -115.741001,0 V 127.842 c 0,0.246 0.285,0.38 0.475,0.224 v 0 l 26.405,-21.726 c 0.067,-0.056 0.106,-0.137 0.106,-0.224 v 0 -28.356996 c 0,-0.16 -0.13,-0.291 -0.291,-0.291 v 0 h -26.405 c -0.161,0 -0.29,0.131 -0.29,0.291 m 84.257,0 v 14.149 c 0,0.086 0.039,0.169 0.105998,0.224 v 0 L 104.0644,102.014 c 0.107,0.088 0.262,0.088 0.368,0 v 0 l 12.031,-9.877996 c 0.067,-0.055 0.107,-0.138 0.107,-0.225 v 0 -14.152 c 0,-0.16 -0.131,-0.291 -0.291,-0.291 v 0 H 92.172397 c -0.16,0 -0.289998,0.131 -0.289998,0.291 m -50.474,0 V 100.061 c 0,0.245 0.284,0.38 0.474,0.224 v 0 l 27.213,-22.301996 c 0.211,-0.173 0.089,-0.515 -0.184,-0.515 v 0 h -27.213 c -0.16,0 -0.29,0.131 -0.29,0.291"
         inkscape:label="logo" /></g><g
       id="g42"
       inkscape:label="text"
       transform="translate(-342.7666,-216.901)"><g
         transform="translate(401.1763,224.4064)"
         id="g50"><path
           inkscape:connector-curvature="0"
           id="path52"
           style="fill:#604515;fill-opacity:1;fill-rule:nonzero;stroke:none"
           d="m 0,0 c -0.972,-0.987 -2.339,-1.531 -3.851,-1.531 h -1.218 c -0.46,0 -0.631,0.171 -0.631,0.632 V 9.392 c 0,0.461 0.171,0.632 0.631,0.632 h 1.218 C -2.339,10.024 -0.972,9.48 0,8.493 1.029,7.448 1.573,5.98 1.573,4.247 1.573,2.514 1.029,1.045 0,0 m 2.75,13.968 v 0 c -1.616,0.998 -3.746,1.503 -6.329,1.503 h -7.707 c -0.01,0 -0.018,0 -0.027,0 0,-0.008 0,-0.017 0,-0.026 V -6.952 c 0,-0.009 0,-0.018 0,-0.026 0.009,0 0.017,0 0.027,0 h 7.707 c 1.805,0 3.633,0.311 4.891,0.833 3.883,1.621 6.202,5.506 6.202,10.392 0,4.306 -1.736,7.849 -4.764,9.721" /></g><g
         inkscape:label="g01"
         transform="translate(346.4404,249.5224)"
         id="g54"><path
           inkscape:connector-curvature="0"
           id="path56"
           style="fill:#604515;fill-opacity:1;fill-rule:nonzero;stroke:none"
           d="m 0,0 c 1.653,-0.989 3.675,-1.49 6.01,-1.49 5.271,0 8.418,2.562 8.418,6.852 0,4.818 -3.799,6.115 -6.852,7.157 -1.95,0.666 -3.634,1.241 -3.634,2.635 0,1.026 1.191,1.905 2.165,1.905 1.636,0 2.923,-1.031 3.477,-2.055 0.058,-0.088 0.064,-0.086 0.281,-0.013 l 4.504,1.789 c 0.12,0.04 0.161,0.065 0.175,0.077 -0.002,0.018 -0.014,0.07 -0.085,0.181 l -0.01,0.018 c -0.72,1.439 -1.83,2.65 -3.211,3.502 -1.556,0.96 -3.392,1.448 -5.457,1.448 -2.434,0 -4.504,-0.666 -5.987,-1.924 -1.441,-1.223 -2.202,-2.893 -2.202,-4.829 0,-4.53 3.585,-5.856 6.466,-6.921 C 6.04,7.599 7.751,6.966 7.751,5.46 7.751,4.369 6.552,3.522 5.52,3.522 4.093,3.522 2.722,4.41 1.852,5.898 1.797,5.975 1.769,6.006 1.756,6.018 1.739,6.018 1.708,6.013 1.683,6.009 L -3.295,4.03 C -3.41,3.991 -3.433,3.969 -3.436,3.965 -3.436,3.961 -3.442,3.903 -3.34,3.683 -2.625,2.153 -1.47,0.879 0,0" /></g><g
         inkscape:label="g02"
         transform="translate(364.7783,248.5553)"
         id="g58"><path
           inkscape:connector-curvature="0"
           id="path60"
           style="fill:#604515;fill-opacity:1;fill-rule:nonzero;stroke:none"
           d="m 0,0 h 14.486 c 0.061,0 0.099,0.002 0.122,0.004 0.002,0.024 0.004,0.061 0.004,0.122 v 4.335 c 0,0.061 -0.002,0.099 -0.004,0.122 -0.023,0.002 -0.061,0.004 -0.122,0.004 H 6.325 c -0.403,0 -0.526,0.123 -0.526,0.526 v 3.345 c 0,0.403 0.123,0.526 0.526,0.526 h 7.671 c 0.061,0 0.1,0.002 0.123,0.004 0.003,0.024 0.004,0.062 0.004,0.123 v 3.971 c 0,0.061 -10e-4,0.099 -0.004,0.122 -0.023,0.003 -0.062,0.005 -0.123,0.005 H 6.325 c -0.403,0 -0.526,0.122 -0.526,0.526 v 3.601 c 0,0.404 0.123,0.527 0.526,0.527 h 7.998 c 0.061,0 0.099,0.001 0.122,0.004 0.003,0.023 0.004,0.061 0.004,0.122 v 4.334 c 0,0.061 -10e-4,0.099 -0.004,0.123 -0.023,0.002 -0.061,0.004 -0.122,0.004 L 0,22.45 c -0.061,0 -0.099,-0.002 -0.122,-0.004 -0.003,-0.024 -0.004,-0.062 -0.004,-0.123 V 0.126 c 0,-0.061 0.001,-0.098 0.004,-0.122 C -0.099,0.002 -0.061,0 0,0" /></g><g
         transform="translate(446.6198,217.4243)"
         id="g62"><path
           inkscape:connector-curvature="0"
           id="path64"
           style="fill:#604515;fill-opacity:1;fill-rule:nonzero;stroke:none"
           d="m 0,0 h 12.486 c 0.061,0 0.099,0.002 0.122,0.004 0.002,0.024 0.004,0.061 0.004,0.122 v 4.335 c 0,0.061 -0.002,0.099 -0.004,0.122 -0.023,0.002 -0.061,0.004 -0.122,0.004 H 6.325 c -0.403,0 -0.526,0.123 -0.526,0.526 v 3.345 c 0,0.403 0.123,0.526 0.526,0.526 h 5.671 c 0.061,0 0.1,0.002 0.123,0.004 0.003,0.024 0.004,0.062 0.004,0.123 v 3.971 c 0,0.061 -10e-4,0.099 -0.004,0.122 -0.023,0.003 -0.062,0.005 -0.123,0.005 H 6.325 c -0.403,0 -0.526,0.122 -0.526,0.526 v 3.601 c 0,0.404 0.123,0.527 0.526,0.527 h 5.998 c 0.061,0 0.099,0.001 0.122,0.004 0.003,0.023 0.004,0.061 0.004,0.122 v 4.334 c 0,0.061 -10e-4,0.099 -0.004,0.123 -0.023,0.002 -0.061,0.004 -0.122,0.004 L 0,22.45 c -0.061,0 -0.099,-0.002 -0.122,-0.004 -0.003,-0.024 -0.004,-0.062 -0.004,-0.123 V 0.126 c 0,-0.061 0.001,-0.098 0.004,-0.122 C -0.099,0.002 -0.061,0 0,0" /></g><g
         inkscape:label="g03"
         transform="translate(400.8351,248.5553)"
         id="g66"><path
           inkscape:connector-curvature="0"
           id="path68"
           style="fill:#604515;fill-opacity:1;fill-rule:nonzero;stroke:none"
           d="m 0,0 -0.001,22.323 c 0,0.061 -0.001,0.099 -0.004,0.123 -0.023,0.002 -0.061,0.004 -0.122,0.004 h -5.346 c -0.061,0 -0.099,-0.002 -0.122,-0.004 -0.003,-0.024 -0.004,-0.062 -0.004,-0.123 v -9.277 c 0,-0.211 -0.216,-0.397 -0.462,-0.397 -0.13,0 -0.276,0.063 -0.371,0.159 l -10.044,9.854 c -0.14,0.137 -0.272,0.185 -0.41,0.185 -0.012,0 -0.211,-0.008 -0.211,-0.165 V 0.126 c 0,-0.061 0.002,-0.098 0.004,-0.122 C -17.069,0.002 -17.031,0 -16.971,0 h 5.345 c 0.062,0 0.1,0.002 0.124,0.004 0.002,0.024 0.004,0.061 0.004,0.122 v 9.213 c 0,0.211 0.215,0.396 0.46,0.396 0.131,0 0.275,-0.061 0.37,-0.156 L -1.012,0.165 C -0.589,-0.312 0,-0.285 0,0" /></g><g
         transform="translate(480.1484,217.4264)"
         id="g70"><path
           inkscape:connector-curvature="0"
           id="path72"
           style="fill:#604515;fill-opacity:1;fill-rule:nonzero;stroke:none"
           d="m 0,0 -0.001,22.323 c 0,0.061 -0.001,0.099 -0.004,0.123 -0.023,0.002 -0.061,0.004 -0.122,0.004 h -5.346 c -0.061,0 -0.099,-0.002 -0.122,-0.004 -0.003,-0.024 -0.004,-0.062 -0.004,-0.123 v -9.277 c 0,-0.211 -0.216,-0.397 -0.462,-0.397 -0.13,0 -0.276,0.063 -0.371,0.159 l -10.044,9.854 c -0.14,0.137 -0.272,0.185 -0.41,0.185 -0.012,0 -0.211,-0.008 -0.211,-0.165 V 0.126 c 0,-0.061 0.002,-0.098 0.004,-0.122 C -17.069,0.002 -17.031,0 -16.971,0 h 5.345 c 0.062,0 0.1,0.002 0.124,0.004 0.002,0.024 0.004,0.061 0.004,0.122 v 9.213 c 0,0.211 0.215,0.396 0.46,0.396 0.131,0 0.275,-0.062 0.37,-0.156 L -1.012,0.165 C -0.589,-0.312 0,-0.285 0,0" /></g><g
         transform="translate(429.7759,266.0224)"
         id="g74"><path
           inkscape:connector-curvature="0"
           id="path76"
           style="fill:#604515;fill-opacity:1;fill-rule:nonzero;stroke:none"
           d="m 0,0 c 0,0.403 0.123,0.526 0.526,0.526 h 1.763 c 1.014,0 1.883,-0.377 2.512,-1.091 0.577,-0.654 0.895,-1.534 0.895,-2.478 0,-2.026 -1.56,-3.738 -3.407,-3.738 H 0.526 C 0.123,-6.781 0,-6.659 0,-6.255 Z m -5.635,-17.467 h 5.509 c 0.061,0 0.099,0.002 0.122,0.004 0.002,0.023 0.004,0.061 0.004,0.122 v 6.472 c 0,0.413 0.155,0.623 0.461,0.623 0.304,0 0.487,-0.179 0.719,-0.509 l 4.543,-6.48 c 0.141,-0.226 0.151,-0.232 0.352,-0.232 h 6.522 0.039 c -0.002,0.003 -0.004,0.006 -0.006,0.009 l -6.013,7.714 -0.009,0.017 c -0.059,0.115 -0.087,0.183 -0.087,0.253 0,0.162 0.096,0.291 0.257,0.349 1.802,0.815 3.946,2.599 3.946,6.474 0,2.603 -0.723,4.571 -2.15,5.849 -1.322,1.184 -3.25,1.785 -5.73,1.785 h -8.479 c -0.062,0 -0.1,-0.002 -0.123,-0.005 C -5.761,4.955 -5.762,4.917 -5.762,4.856 v -22.197 c 0,-0.061 10e-4,-0.099 0.004,-0.122 0.023,-0.002 0.061,-0.004 0.123,-0.004" /></g><g
         transform="translate(451.9898,255.4356)"
         id="g78"><path
           inkscape:connector-curvature="0"
           id="path80"
           style="fill:#604515;fill-opacity:1;fill-rule:nonzero;stroke:none"
           d="m 0,0 0.049,0.144 2.234,5.178 c 0.07,0.144 0.244,0.209 0.375,0.209 0.13,0 0.303,-0.065 0.374,-0.209 L 5.328,0.117 C 5.373,0.027 5.38,-0.036 5.38,-0.066 5.38,-0.363 5.083,-0.363 4.887,-0.363 H 0.526 c -0.184,0 -0.526,0 -0.526,0.33 z m -2.169,-6.675 0.947,2.187 c 0.175,0.394 0.396,0.448 0.608,0.448 h 6.608 c 0.296,0 0.419,-0.096 0.575,-0.446 L 6.57,-4.488 7.516,-6.675 C 7.604,-6.88 7.618,-6.88 7.724,-6.88 h 6.194 c -0.005,0.015 -0.01,0.028 -0.015,0.038 L 3.097,16.01 c -0.06,0.14 -0.208,0.213 -0.375,0.213 -0.156,0 -0.313,-0.072 -0.371,-0.206 L -8.456,-6.839 C -8.462,-6.85 -8.467,-6.864 -8.473,-6.88 h 6.096 c 0.104,0 0.121,0 0.208,0.205" /></g><g
         transform="translate(482.7975,253.8279)"
         id="g82"><path
           inkscape:connector-curvature="0"
           id="path84"
           style="fill:#604515;fill-opacity:1;fill-rule:nonzero;stroke:none"
           d="m 0,0 h -7.711 c -0.404,0 -0.526,0.123 -0.526,0.526 v 16.525 c 0,0.061 -0.002,0.098 -0.005,0.122 -0.023,0.002 -0.061,0.004 -0.122,0.004 h -5.672 c -0.061,0 -0.099,-0.002 -0.122,-0.004 -0.003,-0.023 -0.004,-0.061 -0.004,-0.122 V -5.146 c 0,-0.061 0.001,-0.099 0.004,-0.122 0.023,-0.003 0.061,-0.005 0.122,-0.005 H 0 c 0.061,0 0.099,0.002 0.122,0.004 0.003,0.024 0.004,0.062 0.004,0.123 v 5.02 c 0,0.061 -0.001,0.098 -0.004,0.122 C 0.099,-0.002 0.061,0 0,0" /></g><g
         transform="translate(498.4182,271.005)"
         id="g86"><path
           inkscape:connector-curvature="0"
           id="path88"
           style="fill:#604515;fill-opacity:1;fill-rule:nonzero;stroke:none"
           d="m 0,0 h -16.026 c -0.062,0 -0.1,-0.002 -0.124,-0.004 -0.002,-0.024 -0.004,-0.061 -0.004,-0.122 v -5.059 c 0,-0.062 0.002,-0.1 0.004,-0.124 0.024,-0.002 0.062,-0.004 0.124,-0.004 h 4.34 c 0.404,0 0.527,-0.123 0.527,-0.526 v -16.484 c 0,-0.061 0.001,-0.099 0.004,-0.123 0.023,-0.002 0.061,-0.004 0.123,-0.004 h 6.038 c 0.061,0 0.1,0.002 0.123,0.004 0.002,0.024 0.004,0.062 0.004,0.123 v 16.484 c 0,0.403 0.123,0.526 0.526,0.526 H 0 c 0.062,0 0.1,0.002 0.123,0.004 0.003,0.024 0.004,0.062 0.004,0.124 v 5.059 c 0,0.061 -0.001,0.098 -0.004,0.122 C 0.1,-0.002 0.062,0 0,0" /></g><g
         transform="translate(420.1823,271.005)"
         id="g90"><path
           inkscape:connector-curvature="0"
           id="path92"
           style="fill:#604515;fill-opacity:1;fill-rule:nonzero;stroke:none"
           d="m 0,0 h -16.026 c -0.062,0 -0.1,-0.002 -0.124,-0.004 -0.002,-0.024 -0.004,-0.061 -0.004,-0.122 v -5.059 c 0,-0.062 0.002,-0.1 0.004,-0.124 0.024,-0.002 0.062,-0.004 0.124,-0.004 h 4.34 c 0.404,0 0.527,-0.123 0.527,-0.526 v -16.484 c 0,-0.061 0.001,-0.099 0.004,-0.123 0.023,-0.002 0.061,-0.004 0.123,-0.004 h 6.038 c 0.061,0 0.099,0.002 0.123,0.004 0.002,0.024 0.004,0.062 0.004,0.123 v 16.484 c 0,0.403 0.123,0.526 0.526,0.526 H 0 c 0.062,0 0.1,0.002 0.123,0.004 0.003,0.024 0.004,0.062 0.004,0.124 v 5.059 c 0,0.061 -0.001,0.098 -0.004,0.122 C 0.1,-0.002 0.062,0 0,0" /></g><g
         transform="translate(498.2974,239.9006)"
         id="g94"><path
           inkscape:connector-curvature="0"
           id="path96"
           style="fill:#604515;fill-opacity:1;fill-rule:nonzero;stroke:none"
           d="m 0,0 h -14.949 c -0.061,0 -0.1,-0.002 -0.123,-0.004 -0.002,-0.024 -0.004,-0.061 -0.004,-0.122 v -5.059 c 0,-0.062 0.002,-0.1 0.004,-0.124 0.024,-0.002 0.062,-0.004 0.123,-0.004 h 3.263 c 0.404,0 0.526,-0.123 0.526,-0.526 v -16.484 c 0,-0.061 0.002,-0.099 0.005,-0.123 0.023,-0.002 0.061,-0.004 0.123,-0.004 h 6.038 c 0.061,0 0.099,0.002 0.123,0.004 0.002,0.024 0.004,0.062 0.004,0.123 v 16.484 c 0,0.403 0.123,0.526 0.526,0.526 H 0 c 0.062,0 0.1,0.002 0.123,0.004 0.003,0.024 0.004,0.062 0.004,0.124 v 5.059 c 0,0.061 -0.001,0.098 -0.004,0.122 C 0.1,-0.002 0.062,0 0,0" /></g><g
         transform="translate(361.5096,230.1395)"
         id="g98"><path
           inkscape:connector-curvature="0"
           id="path100"
           style="fill:#604515;fill-opacity:1;fill-rule:nonzero;stroke:none"
           d="m 0,0 h -7.258 c -0.06,0 -0.098,-0.002 -0.122,-0.004 -0.002,-0.024 -0.004,-0.061 -0.004,-0.122 v -3.642 c 0,-0.061 0.002,-0.099 0.004,-0.122 0.024,-0.003 0.062,-0.005 0.122,-0.005 h 2.188 c 0.404,0 0.527,-0.122 0.527,-0.526 v -2.945 c 0,-0.51 -0.857,-0.958 -1.833,-0.958 -1.877,0 -3.485,0.669 -4.651,1.933 -1.091,1.184 -1.692,2.808 -1.692,4.574 0,1.713 0.656,3.414 1.802,4.668 1.237,1.355 2.954,2.101 4.835,2.101 2.204,0 4.091,-0.6 5.61,-1.782 v 5.622 c 0,0.06 0,0.073 -0.15,0.147 -1.626,0.813 -3.956,1.318 -6.08,1.318 -3.413,0 -6.518,-1.261 -8.744,-3.55 -2.126,-2.188 -3.297,-5.099 -3.297,-8.197 0,-3.305 1.149,-6.281 3.235,-8.379 2.191,-2.204 5.27,-3.369 8.904,-3.369 2.575,0 4.789,0.454 6.58,1.351 0.151,0.075 0.151,0.088 0.151,0.147 V -0.126 C 0.127,-0.024 0.116,0 0,0" /></g><g
         transform="translate(379.4538,224.588)"
         id="g102"><path
           inkscape:connector-curvature="0"
           id="path104"
           style="fill:#604515;fill-opacity:1;fill-rule:nonzero;stroke:none"
           d="m 0,0 c -1.021,-1.156 -2.382,-1.793 -3.833,-1.793 -1.452,0 -2.814,0.637 -3.835,1.793 -0.973,1.102 -1.531,2.582 -1.531,4.062 0,1.479 0.558,2.959 1.531,4.06 1.022,1.157 2.383,1.794 3.835,1.794 C -2.382,9.916 -1.021,9.279 0,8.122 0.973,7.021 1.531,5.541 1.531,4.062 1.531,2.582 0.973,1.102 0,0 m -3.833,15.809 c -3.085,0 -5.973,-1.231 -8.132,-3.465 -2.142,-2.217 -3.322,-5.159 -3.322,-8.282 0,-3.124 1.18,-6.066 3.322,-8.284 2.159,-2.234 5.047,-3.465 8.132,-3.465 3.084,0 5.972,1.231 8.13,3.465 2.143,2.218 3.322,5.16 3.322,8.284 0,3.123 -1.179,6.065 -3.322,8.282 -2.158,2.234 -5.046,3.465 -8.13,3.465" /></g><g
         transform="translate(430.8028,217.4502)"
         id="g106"><path
           inkscape:connector-curvature="0"
           id="path108"
           style="fill:#604515;fill-opacity:1;fill-rule:nonzero;stroke:none"
           d="m 0,0 -6.877,11.832 c -0.053,0.063 -0.103,0.164 -0.103,0.281 0,0.101 0.041,0.209 0.105,0.283 L -0.88,22.4 c 0.006,0.009 0.011,0.016 0.016,0.024 H -7.36 c -0.154,0 -0.154,0 -0.276,-0.146 -0.024,-0.029 -0.051,-0.06 -0.081,-0.096 l -4.373,-7.861 c -0.099,-0.149 -0.288,-0.254 -0.46,-0.254 -0.197,0 -0.395,0.148 -0.395,0.429 v 7.801 c 0,0.061 -0.002,0.099 -0.005,0.123 -0.023,0.002 -0.061,0.004 -0.123,0.004 h -5.509 c -0.061,0 -0.098,-0.002 -0.122,-0.004 -0.002,-0.024 -0.004,-0.062 -0.004,-0.123 V 0.1 c 0,-0.061 0.002,-0.098 0.004,-0.122 0.024,-0.002 0.061,-0.004 0.122,-0.004 h 5.509 c 0.062,0 0.1,0.002 0.123,0.004 0.003,0.024 0.005,0.061 0.005,0.122 v 9.271 c 0,0.195 0.079,0.428 0.46,0.428 0.105,0 0.314,-0.046 0.428,-0.221 l 0.007,-0.012 5.246,-9.349 c 0.039,-0.045 0.072,-0.083 0.1,-0.117 0.107,-0.126 0.107,-0.126 0.258,-0.126 h 6.464 c -0.002,0.002 -0.004,0.005 -0.005,0.007 z" /></g><g
         transform="translate(441.9951,239.8741)"
         id="g110"><path
           inkscape:connector-curvature="0"
           id="path112"
           style="fill:#604515;fill-opacity:1;fill-rule:nonzero;stroke:none"
           d="M 0,0 H -5.672 C -5.734,0 -5.772,-0.002 -5.796,-0.004 -5.798,-0.028 -5.8,-0.065 -5.8,-0.126 v -15.285 c 0,-1.65 -0.727,-2.419 -2.289,-2.419 -0.492,0 -1.092,0.138 -1.414,0.211 l -0.098,0.023 c -0.037,0.009 -0.062,0.012 -0.078,0.014 -0.002,-0.017 -0.005,-0.042 -0.005,-0.081 v -4.693 c 0,-0.116 0.012,-0.145 0.015,-0.149 0.016,-0.012 0.108,-0.036 0.152,-0.046 0.89,-0.144 2.004,-0.291 3.517,-0.291 2.015,0 3.564,0.506 4.604,1.503 1.01,0.969 1.522,2.384 1.522,4.205 v 17.008 c 0,0.061 -0.001,0.098 -0.004,0.122 C 0.099,-0.002 0.061,0 0,0" /></g></g></g></svg>