<?xml version="1.0" encoding="UTF-8" standalone="no"?>
<svg
   xmlns:svg="http://www.w3.org/2000/svg"
   xmlns="http://www.w3.org/2000/svg"
   id="vhl"
   viewBox="0 0 4417 4431"
   style="shape-rendering:geometricPrecision; text-rendering:geometricPrecision; image-rendering:optimizeQuality; fill-rule:evenodd; clip-rule:evenodd"
   version="1.1"
   height="4.43055in"
   width="4.41666in"
   xml:space="preserve">
 <g
   id="g230"><path
     style="fill:#373435;fill-rule:nonzero"
     id="path7"
     d="M 2921,3148 H 1797 l -47,-1427 c 0,-204 -77,-322 -228,-351 l -104,-19 -10,-58 h 639 v 1376 c 0,244 54,346 389,346 h 5 c 358,0 417,-111 466,-365 l 26,-135 h 78 l -88,633 z m -84,-747 -43,227 c -38,199 -53,273 -354,273 h -5 c -245,0 -276,-26 -276,-232 V 1179 h -887 l 48,269 181,33 c 63,12 135,50 135,241 l 51,1539 h 1333 l 119,-860 z"
     class="fil0" /><path
     style="fill:#373435;fill-rule:nonzero"
     id="path9"
     d="M 2213,3731 C 1371,3731 686,3046 686,2204 686,1362 1371,677 2213,677 c 842,0 1527,685 1527,1527 0,842 -685,1527 -1527,1527 z m 0,-3187 c -915,0 -1660,745 -1660,1660 0,915 745,1660 1660,1660 915,0 1660,-745 1660,-1660 0,-915 -745,-1660 -1660,-1660 z"
     class="fil0" /><path
     style="fill:#373435;fill-rule:nonzero"
     id="path11"
     d="M 36,2196 C 7,2165 -2,2130 0,2091 c 2,-40 18,-72 45,-96 39,-35 84,-32 147,-28 63,3 108,4 143,43 24,27 37,59 35,100 -4,84 -62,124 -123,131 l 4,-71 c 35,-6 55,-26 56,-63 1,-19 -6,-36 -17,-46 -15,-15 -31,-19 -101,-23 -70,-4 -87,-1 -103,12 -12,10 -20,25 -21,44 -1,21 6,39 18,52 13,12 29,18 48,19 l 14,1 3,-67 59,3 -7,137 -53,-3 c -53,-3 -84,-13 -109,-40 z"
     class="fil0" /><path
     style="fill:#373435;fill-rule:nonzero"
     id="path13"
     d="m 307,2504 c 10,-12 16,-28 13,-48 -3,-19 -12,-34 -25,-43 -17,-12 -34,-13 -104,-4 -69,9 -86,15 -99,31 -10,12 -16,29 -13,48 3,19 12,34 25,42 17,12 34,13 104,4 69,-9 86,-16 99,-31 z m -238,85 c -29,-22 -47,-51 -53,-92 -5,-41 4,-74 26,-103 32,-41 77,-46 139,-55 62,-8 107,-15 149,16 29,22 47,51 53,92 5,41 -5,74 -26,103 -32,41 -77,47 -139,55 -62,8 -107,15 -149,-17 z"
     class="fil0" /><path
     style="fill:#373435;fill-rule:nonzero"
     id="path15"
     d="m 391,2855 c 10,-16 12,-34 5,-57 l -17,-51 -225,74 17,51 c 8,23 20,36 38,43 20,8 45,1 97,-16 52,-17 74,-26 85,-44 z m -216,123 c -30,-15 -51,-45 -63,-80 l -41,-125 346,-113 41,125 c 12,36 12,72 -3,102 -26,52 -75,63 -127,80 -52,17 -101,37 -153,11 z"
     class="fil0" /><polygon
     style="fill:#373435;fill-rule:nonzero"
     id="polygon17"
     points="247,3221 213,3159 532,2984 566,3046 427,3122 628,3159 670,3234 485,3198 355,3417 315,3344 415,3183 343,3169 "
     class="fil0" /><path
     style="fill:#373435;fill-rule:nonzero"
     id="path19"
     d="m 457,3556 c -24,-31 -33,-58 -29,-96 l 66,8 c -2,16 -2,31 13,49 22,27 52,32 84,6 l 189,-150 44,56 -191,152 c -63,50 -134,29 -176,-24 z"
     class="fil0" /><polygon
     style="fill:#373435;fill-rule:nonzero"
     id="polygon21"
     points="1020,3705 896,3591 838,3654 944,3751 902,3798 796,3701 736,3767 861,3880 818,3927 641,3766 886,3497 1063,3658 "
     class="fil0" /><polygon
     style="fill:#373435;fill-rule:nonzero"
     id="polygon23"
     points="1178,3738 1184,4004 1301,3814 1361,3851 1171,4161 1117,4128 1111,3862 994,4052 933,4015 1124,3705 "
     class="fil0" /><polygon
     style="fill:#373435;fill-rule:nonzero"
     id="polygon25"
     points="1641,4033 1553,3999 1444,4279 1378,4253 1486,3973 1398,3939 1421,3880 1664,3974 "
     class="fil0" /><polygon
     style="fill:#373435;fill-rule:nonzero"
     id="polygon27"
     points="1904,4332 2068,4353 2060,4416 1826,4385 1873,4025 1943,4034 "
     class="fil0" /><path
     style="fill:#373435;fill-rule:nonzero"
     id="path29"
     d="m 2363,4111 -70,168 84,-7 -14,-160 z m 26,299 -7,-79 -115,10 -34,83 -76,7 157,-379 280,-25 6,63 -168,15 8,85 144,-13 6,63 -144,13 8,88 168,-15 6,63 -238,21 z"
     class="fil0" /><path
     style="fill:#373435;fill-rule:nonzero"
     id="path31"
     d="m 2814,4020 -64,21 30,91 64,-21 c 30,-10 43,-35 34,-62 -9,-27 -34,-39 -64,-30 z m 145,269 -112,-116 -49,16 45,138 -68,22 -112,-346 136,-44 c 70,-23 128,12 147,70 16,49 -4,88 -34,111 l 126,124 -78,25 z"
     class="fil0" /><polygon
     style="fill:#373435;fill-rule:nonzero"
     id="polygon33"
     points="3227,3830 3078,3910 3119,3985 3245,3917 3275,3973 3148,4041 3190,4119 3339,4039 3369,4095 3157,4208 2986,3887 3197,3774 "
     class="fil0" /><path
     style="fill:#373435;fill-rule:nonzero"
     id="path35"
     d="m 3508,3806 -58,46 55,70 58,-46 c 25,-20 25,-46 9,-65 -15,-19 -40,-25 -65,-5 z m -95,-113 -54,43 52,66 55,-43 c 24,-19 26,-42 11,-62 -16,-20 -39,-22 -63,-4 z m 196,228 -119,94 -226,-285 115,-91 c 56,-44 113,-38 152,10 25,32 20,69 11,87 24,-6 60,-5 90,33 42,53 29,111 -22,151 z"
     class="fil0" /><polygon
     style="fill:#373435;fill-rule:nonzero"
     id="polygon37"
     points="3733,3372 3622,3498 3686,3555 3781,3447 3828,3489 3733,3597 3800,3655 3911,3528 3958,3570 3800,3750 3527,3510 3685,3330 "
     class="fil0" /><path
     style="fill:#373435;fill-rule:nonzero"
     id="path39"
     d="m 3896,3159 c -19,3 -34,13 -47,34 l -28,46 203,122 28,-46 c 13,-21 14,-39 8,-57 -7,-20 -28,-35 -76,-63 -47,-28 -68,-39 -89,-36 z m 234,83 c 8,33 0,68 -20,100 l -68,113 -312,-187 68,-113 c 19,-32 46,-56 79,-64 56,-14 97,15 144,43 47,28 95,52 108,108 z"
     class="fil0" /><path
     style="fill:#373435;fill-rule:nonzero"
     id="path41"
     d="m 4009,2860 -23,63 90,34 23,-63 c 11,-29 -1,-55 -27,-65 -26,-10 -52,2 -63,32 z m 301,53 -161,16 -18,48 136,51 -25,67 -341,-127 50,-134 c 26,-69 89,-93 146,-72 48,18 67,58 66,96 l 175,-21 -29,77 z"
     class="fil0" /><polygon
     style="fill:#373435;fill-rule:nonzero;filter:url(#filter232)"
     id="polygon43"
     points="4366,2714 4011,2635 4026,2566 4381,2645 "
     class="fil0" /><polygon
     style="fill:#373435;fill-rule:nonzero"
     id="polygon45"
     points="4414,2426 4409,2497 4046,2467 4066,2228 4129,2233 4115,2401 4204,2409 4216,2266 4279,2271 4267,2414 "
     class="fil0" /><polygon
     style="fill:#373435;fill-rule:nonzero"
     id="polygon47"
     points="4107,1917 4115,2012 4415,1987 4421,2057 4121,2082 4129,2177 4066,2182 4044,1922 "
     class="fil0" /><path
     style="fill:#373435;fill-rule:nonzero"
     id="path49"
     d="m 308,1558 c -7,-14 -20,-24 -35,-29 -6,-2 -12,-3 -18,-3 -26,0 -49,17 -56,41 -5,15 -3,31 4,45 7,14 20,24 35,29 6,2 12,3 18,3 26,0 49,-17 56,-41 5,-15 3,-31 -4,-45 z"
     class="fil0" /><polygon
     style="fill:#373435;fill-rule:nonzero"
     id="polygon51"
     points="609,1286 235,1204 272,1141 513,1198 346,1015 384,951 636,1240 "
     class="fil0" /><polygon
     style="fill:#373435;fill-rule:nonzero"
     id="polygon53"
     points="782,1034 738,1090 452,865 496,809 "
     class="fil0" /><polygon
     style="fill:#373435;fill-rule:nonzero"
     id="polygon55"
     points="1001,808 946,852 717,569 772,525 866,640 961,563 868,447 923,403 1152,685 1097,730 1001,612 905,689 "
     class="fil0" /><path
     style="fill:#373435;fill-rule:nonzero"
     id="path57"
     d="m 1215,352 22,138 80,-43 z m 196,185 -49,-46 -114,61 11,67 -65,35 -56,-383 49,-26 289,257 z"
     class="fil0" /><path
     style="fill:#373435;fill-rule:nonzero"
     id="path59"
     d="m 1566,156 -64,21 30,91 64,-21 c 30,-10 43,-35 34,-62 -9,-27 -34,-39 -64,-30 z m 145,269 -112,-116 -49,16 45,138 -68,22 -112,-346 136,-44 c 70,-23 128,12 147,70 16,49 -4,88 -34,111 l 125,124 z"
     class="fil0" /><polygon
     style="fill:#373435;fill-rule:nonzero"
     id="polygon61"
     points="1979,2 2041,-1 2049,-1 2067,298 2232,288 2236,351 2000,365 "
     class="fil0" /><path
     style="fill:#373435;fill-rule:nonzero"
     id="path63"
     d="m 2533,80 -109,146 83,13 25,-159 z m -47,297 13,-79 -114,-18 -53,72 -75,-12 245,-329 278,44 -10,63 -166,-27 -14,85 142,23 -10,63 -142,-23 -14,87 166,27 -10,63 -236,-38 z"
     class="fil0" /><path
     style="fill:#373435;fill-rule:nonzero"
     id="path65"
     d="m 3027,216 -62,-25 -36,89 62,25 c 29,12 55,1 66,-25 10,-26 -1,-52 -30,-64 z m -61,299 -12,-161 -47,-19 -54,135 -66,-26 136,-337 132,53 c 69,28 91,91 68,147 -19,47 -60,65 -97,64 l 17,176 -76,-31 z"
     class="fil0" /><polygon
     style="fill:#373435;fill-rule:nonzero"
     id="polygon67"
     points="3196,564 3336,651 3302,705 3102,581 3294,272 3354,309 "
     class="fil0" /><polygon
     style="fill:#373435;fill-rule:nonzero"
     id="polygon69"
     points="3414,799 3360,754 3591,473 3646,518 "
     class="fil0" /><polygon
     style="fill:#373435;fill-rule:nonzero"
     id="polygon71"
     points="3804,665 3735,921 3900,772 3948,825 3678,1069 3635,1022 3705,765 3539,915 3491,862 3761,618 "
     class="fil0" /><path
     style="fill:#373435;fill-rule:nonzero"
     id="path73"
     d="m 3880,1315 c -41,-9 -68,-33 -88,-67 -21,-34 -25,-69 -17,-105 12,-51 52,-73 106,-106 54,-32 92,-57 143,-44 35,9 64,28 85,63 44,72 19,137 -29,177 l -37,-61 c 25,-25 30,-52 12,-83 -10,-17 -25,-26 -40,-29 -20,-4 -37,2 -96,38 -60,36 -73,48 -79,68 -5,15 -3,32 7,49 11,18 27,29 44,33 17,3 34,-1 50,-11 l 12,-7 -35,-57 51,-31 71,118 -45,27 c -45,27 -77,36 -113,28 z"
     class="fil0" /><path
     style="fill:#373435;fill-rule:nonzero"
     id="path75"
     d="m 4227,1567 c -8,-25 -30,-41 -56,-41 -6,0 -12,1 -18,3 -15,5 -27,15 -35,29 -7,14 -9,30 -4,45 8,25 30,41 56,41 6,0 12,-1 18,-3 15,-5 27,-15 35,-29 7,-14 9,-30 4,-45 z"
     class="fil0" /></g>
</svg>