<?xml version="1.0" standalone="no"?>
<!DOCTYPE svg PUBLIC "-//W3C//DTD SVG 20010904//EN"
 "http://www.w3.org/TR/2001/REC-SVG-20010904/DTD/svg10.dtd">
<svg version="1.0" xmlns="http://www.w3.org/2000/svg"
 width="700.000000pt" height="700.000000pt" viewBox="0 0 700.000000 700.000000"
 preserveAspectRatio="xMidYMid meet">
<metadata>
Created by potrace 1.11, written by Peter Selinger 2001-2013
</metadata>
<g transform="translate(0.000000,700.000000) scale(0.100000,-0.100000)"
fill="#000000" stroke="none">
<path d="M3497 6439 c-34 -62 -109 -197 -212 -384 -48 -88 -95 -171 -104 -185
-8 -14 -16 -27 -16 -30 0 -3 -10 -21 -21 -40 -12 -19 -75 -132 -139 -250 -65
-118 -128 -233 -140 -255 -13 -22 -89 -159 -169 -305 -81 -146 -151 -272 -156
-280 -5 -8 -18 -31 -28 -50 -26 -49 -187 -340 -538 -972 -57 -103 -104 -191
-104 -194 0 -4 -6 -15 -14 -23 -7 -9 -31 -50 -53 -91 -22 -41 -49 -91 -60
-110 -20 -35 -42 -76 -124 -225 -24 -44 -48 -88 -54 -97 -5 -9 -23 -41 -39
-70 -15 -29 -95 -172 -175 -318 -81 -146 -187 -337 -236 -425 -49 -88 -96
-173 -105 -190 -9 -16 -45 -82 -80 -145 -35 -63 -72 -131 -83 -150 -40 -71
-225 -406 -246 -445 -12 -22 -26 -47 -31 -55 -9 -15 -166 -298 -238 -430 -19
-36 -52 -96 -74 -133 -21 -38 -38 -70 -38 -70 0 -1 1475 -2 3279 -2 2695 0
3278 2 3273 13 -2 7 -117 219 -254 470 -138 251 -270 495 -295 542 -25 47 -49
90 -53 95 -4 6 -27 46 -50 90 -24 44 -202 371 -396 727 -194 356 -366 671
-381 699 -54 100 -78 145 -114 209 -20 36 -52 94 -72 130 -19 36 -74 137 -122
225 -110 200 -139 254 -183 335 -47 88 -83 154 -159 289 -34 62 -63 115 -63
117 0 2 -33 63 -74 136 -40 73 -89 162 -108 198 -55 102 -94 172 -116 211 -11
21 -44 81 -73 135 -29 55 -55 104 -59 109 -4 6 -29 51 -55 100 -27 50 -71 131
-98 180 -27 50 -62 113 -77 140 -15 28 -54 100 -87 160 -33 61 -77 142 -98
180 -21 39 -46 84 -55 100 -10 17 -33 59 -53 95 -57 107 -108 199 -132 242
l-23 40 -25 -43z"/>
</g>
</svg>
