<?xml version="1.0" encoding="UTF-8" standalone="no"?>
<!-- Created with Inkscape (http://www.inkscape.org/) -->

<svg
   xmlns:dc="http://purl.org/dc/elements/1.1/"
   xmlns:cc="http://creativecommons.org/ns#"
   xmlns:rdf="http://www.w3.org/1999/02/22-rdf-syntax-ns#"
   xmlns:svg="http://www.w3.org/2000/svg"
   xmlns="http://www.w3.org/2000/svg"
   xmlns:sodipodi="http://sodipodi.sourceforge.net/DTD/sodipodi-0.dtd"
   xmlns:inkscape="http://www.inkscape.org/namespaces/inkscape"
   version="1.1"
   id="svg3713"
   width="494.72"
   height="288"
   viewBox="0 0 494.72 288"
   sodipodi:docname="Disen bygg.svg"
   inkscape:version="0.92.3 (2405546, 2018-03-11)">
  <metadata
     id="metadata3719">
    <rdf:RDF>
      <cc:Work
         rdf:about="">
        <dc:format>image/svg+xml</dc:format>
        <dc:type
           rdf:resource="http://purl.org/dc/dcmitype/StillImage" />
        <dc:title></dc:title>
      </cc:Work>
    </rdf:RDF>
  </metadata>
  <defs
     id="defs3717" />
  <sodipodi:namedview
     pagecolor="#ffffff"
     bordercolor="#666666"
     borderopacity="1"
     objecttolerance="10"
     gridtolerance="10"
     guidetolerance="10"
     inkscape:pageopacity="0"
     inkscape:pageshadow="2"
     inkscape:window-width="1920"
     inkscape:window-height="1017"
     id="namedview3715"
     showgrid="false"
     inkscape:zoom="3.7190539"
     inkscape:cx="210.08077"
     inkscape:cy="156.37884"
     inkscape:window-x="-8"
     inkscape:window-y="-8"
     inkscape:window-maximized="1"
     inkscape:current-layer="svg3713" />
  <path
     style="fill:#000000;stroke-width:0.63999999"
     d="M 47.36,205.12 V 160 h 14.632646 c 16.14832,0 19.506106,0.40868 24.857524,3.02543 6.939436,3.39326 12.878764,11.19302 13.98902,18.37092 0.34692,2.24288 0.88411,2.94145 3.87682,5.04151 6.19938,4.35029 11.50026,12.52604 13.09166,20.1918 0.4011,1.93206 0.6189,6.41478 0.48399,9.96159 -0.21512,5.65561 -0.50178,6.99477 -2.33077,10.88826 -2.72536,5.80164 -5.95975,9.97081 -10.50636,13.54283 -4.83784,3.80082 -13.244136,7.69421 -18.429,8.53541 -2.280039,0.36992 -12.13753,0.67476 -21.90553,0.67742 l -17.76,0.005 z m 39.837261,40.34289 c 12.275078,-2.60126 22.515299,-11.26956 26.111069,-22.10289 1.82058,-5.48506 1.53819,-14.44651 -0.63174,-20.04751 -2.04608,-5.28132 -6.68392,-11.09511 -11.29637,-14.16062 -3.764898,-2.50223 -3.912297,-2.70403 -4.261673,-5.83476 C 96.10169,174.2051 88.71081,166.61297 78.848499,164.54957 76.983174,164.15931 69.999174,163.84 63.328499,163.84 H 51.2 v 40.85333 c 0,22.46934 0.192,41.04534 0.426667,41.28 0.874105,0.87411 31.082677,0.44061 35.570594,-0.51044 z M 138.23753,228 l -0.002,-21.6 -16.31754,-21.68699 C 112.94289,172.78517 105.6,162.8218 105.6,162.5722 c 0,-0.59822 2.50319,-2.85381 2.79102,-2.51495 0.12275,0.14452 6.93262,9.19075 15.13305,20.10275 8.20043,10.912 15.26533,20.22881 15.69978,20.70403 0.64473,0.70522 1.9184,-0.70635 6.92972,-7.68 3.37689,-4.69922 9.48172,-13.15203 13.56629,-18.78403 4.08456,-5.632 8.05055,-11.17244 8.81331,-12.31208 1.61457,-2.41236 1.75773,-2.451 3.58479,-0.96792 1.37965,1.1199 1.37833,1.12198 -14.3291,22.8494 L 142.08,205.6988 V 227.6494 249.6 h -1.92 -1.92 L 138.237,228 Z m 65.33059,20.90415 c -13.18649,-2.58714 -25.70702,-11.00371 -31.71396,-21.31881 -5.03186,-8.64069 -6.78573,-21.32364 -4.49476,-32.5035 2.08733,-10.1861 9.11401,-20.82143 17.89776,-27.08939 8.32453,-5.94025 16.35744,-8.63245 25.7573,-8.63245 H 216.96 v 1.92 1.92 h -5.0885 c -7.01896,0 -10.8988,0.92113 -17.7745,4.2199 -14.93831,7.16699 -23.88707,21.53913 -23.84589,38.29764 0.0468,19.05952 12.40021,33.7326 32.59074,38.71062 4.6175,1.13846 7.3821,1.33184 19.04,1.33184 H 235.52 v -26.24 -26.24 h -10.24 -10.24 v -1.92 -1.92 h 12.16 12.16 v 30.08 30.08 l -16.48,-0.0701 c -9.064,-0.0386 -17.75435,-0.32015 -19.31188,-0.62573 z m 80.00387,-0.33102 c -16.64432,-3.63981 -29.712,-15.30593 -34.37855,-30.69135 -1.59462,-5.25742 -1.62692,-18.76906 -0.0588,-24.60178 5.29595,-19.6986 23.39657,-33.92 43.1725,-33.92 H 298.24 v 1.92 1.92 h -5.30554 c -6.64212,0 -11.43516,1.19854 -18.36652,4.59271 -4.28888,2.10019 -6.51317,3.7488 -10.56908,7.83365 -5.64021,5.68042 -8.30903,10.10342 -10.65217,17.65364 -1.22411,3.94441 -1.48298,6.16895 -1.45227,12.48 0.0322,6.61659 0.27639,8.37368 1.76367,12.68981 2.21892,6.43937 5.00477,10.73754 9.87901,15.24187 4.92935,4.55527 9.12718,6.95895 16.79626,9.61756 l 6.06664,2.10311 15.2,0.22458 15.2,0.2246 V 219.57076 193.28 h -9.92 -9.92 v -1.92 -1.92 h 11.84 11.84 v 30.08 30.08 l -16.48,-0.0643 c -11.55209,-0.0451 -17.70839,-0.33289 -20.58801,-0.96261 z m 85.65091,-114.0608 c -8.65541,-10.09378 -26.36741,-30.67382 -39.36,-45.733424 L 306.24,61.397805 306.07565,105.89891 305.9113,150.4 H 303.99565 302.08 l 0.0142,-50.08 c 0.0135,-47.560733 0.0699,-50.010079 1.12,-48.690048 0.60817,0.764474 18.38576,21.407565 39.50576,45.87353 l 38.4,44.483588 0.16445,-43.47354 0.16446,-43.47353 h 1.91556 1.91556 V 104 c 0,26.928 -0.072,48.93855 -0.16,48.91233 -0.088,-0.0262 -7.2417,-8.30621 -15.8971,-18.4 z m -192.99119,15.25955 c -11.67117,-3.05976 -21.02902,-10.84226 -26.75435,-22.25039 -2.60464,-5.18991 -4.19736,-10.76641 -4.19736,-14.69595 0,-2.62393 0.085,-2.74554 1.92,-2.74554 1.81912,0 1.92,0.13699 1.92,2.60716 0,1.43393 0.7412,4.81517 1.64712,7.51385 5.26294,15.67802 17.96633,25.79753 33.66904,26.82073 10.54461,0.6871 18.67447,-2.15537 26.0097,-9.09386 4.9479,-4.68028 7.85202,-9.18752 10.17629,-15.79374 1.42637,-4.05415 1.69345,-6.06777 1.95894,-14.7693 L 222.8885,97.289677 182.71869,97.124838 142.54888,96.96 l 18.06267,-21.657907 18.06268,-21.657902 1.49572,1.405154 1.49571,1.405154 L 166.3094,74.787251 150.95314,93.12 l 37.86225,0.165101 37.86224,0.165101 -0.24624,12.314898 c -0.22907,11.45623 -0.36998,12.6719 -2.02101,17.4349 -4.81769,13.89839 -15.99242,24.56081 -28.44188,27.13794 -5.18133,1.07257 -14.50657,0.80512 -19.73679,-0.56606 z M 236.8,102.72 V 54.4 h 28.16 28.16 v 1.92 1.92 h -26.24 -26.24 v 21.12 21.12 h 9.6 9.6 v 1.92 1.92 h -9.6 -9.6 v 21.44 21.44 h 26.24 26.24 v 1.92 1.92 H 264.96 236.8 Z M 47.36,102.13137 V 53.76 l 16.8,0.01111 c 19.559994,0.01294 22.892205,0.509155 31.52,4.693809 14.22301,6.898445 22.99185,17.362989 26.64077,31.792493 1.16775,4.617817 1.30788,6.605069 1.0339,14.662208 -0.33673,9.90246 -0.97943,12.65919 -4.63819,19.89476 -5.33796,10.55637 -16.24424,19.15558 -30.07648,23.71424 -4.168032,1.37366 -5.761306,1.4938 -22.88,1.72529 l -18.4,0.24882 z m 41.6,41.97887 c 14.75491,-5.11083 24.54011,-14.58406 29.2012,-28.27024 0.95478,-2.80349 1.1988,-5.40899 1.1988,-12.8 0,-8.531046 -0.15118,-9.741286 -1.8732,-14.995629 C 113.14244,74.788576 102.80511,64.645997 88.64,59.741036 83.66921,58.019798 83.04905,57.961119 67.36,57.727569 L 51.2,57.487008 v 44.585732 44.58574 l 15.84,-0.22112 15.84,-0.22112 z M 132.48,102.72 V 55.04 h 1.92 1.92 v 47.68 47.68 h -1.92 -1.92 z M 411.52,79.14329 c 0,-0.199264 15.3402,-28.06452 15.6457,-28.420185 0.0741,-0.08629 2.68158,4.521707 5.79437,10.24 3.11279,5.71829 6.64461,12.196895 7.84851,14.396895 l 2.18889,4 h -15.73874 c -8.6563,0 -15.73873,-0.09752 -15.73873,-0.21671 z"
     id="path3723"
     inkscape:connector-curvature="0" />
</svg>
